<svg version="1.1" xmlns="http://www.w3.org/2000/svg" viewBox="0 0 1909.8401305707337 2269.0267411836985" width="1909.8401305707337" height="2269.0267411836985" filter="invert(93%) hue-rotate(180deg)">
  <!-- svg-source:excalidraw -->
  
  <defs>
    <style class="style-fonts">
      @font-face {
        font-family: "Virgil";
        src: url("https://excalidraw.com/Virgil.woff2");
      }
      @font-face {
        font-family: "Cascadia";
        src: url("https://excalidraw.com/Cascadia.woff2");
      }
      @font-face {
        font-family: "Assistant";
        src: url("https://excalidraw.com/Assistant-Regular.woff2");
      }
    </style>
    
  </defs>
  <rect x="0" y="0" width="1909.8401305707337" height="2269.0267411836985" fill="#ffffff"></rect><g stroke-linecap="round" transform="translate(148.3542859334857 242.39327004608123) rotate(0 545.8951830210038 360.82634167208454)"><path d="M32 0 C370.08 0.06, 709.65 1.42, 1059.79 0 M1059.79 0 C1081.59 -0.1, 1092.66 6.95, 1091.79 32 M1091.79 32 C1091.01 219.45, 1088.54 407.34, 1091.79 689.65 M1091.79 689.65 C1087.84 707.41, 1084.3 719.34, 1059.79 721.65 M1059.79 721.65 C782.86 719.97, 507.31 719.15, 32 721.65 M32 721.65 C8.08 719.88, -0.61 708.56, 0 689.65 M0 689.65 C-3.84 529.29, -3.06 370.3, 0 32 M0 32 C3.02 8.28, 7.5 -0.18, 32 0" stroke="#e03131" stroke-width="1.5" fill="none" stroke-dasharray="8 9"></path></g><g transform="translate(177.6642738638218 204.42186158811) rotate(0 116.36793518066406 17.5)"><text x="0" y="24.528" font-family="Virgil, Segoe UI Emoji" font-size="28px" fill="#e03131" text-anchor="start" style="white-space: pre;" direction="ltr" dominant-baseline="alphabetic">front-end (client)</text></g><g stroke-linecap="round" transform="translate(440.77238529836586 307.0897971280284) rotate(0 59.22353322859317 59.22353322859318)"><path d="M7.2 28.79 C7.2 28.79, 7.2 28.79, 7.2 28.79 M7.2 28.79 C7.2 28.79, 7.2 28.79, 7.2 28.79 M6.88 33.39 C10.5 28.55, 19.95 20.9, 25.65 9.02 M5.53 35.8 C13.03 28.28, 20.26 20.92, 28.46 12.26 M2.32 41.75 C19.07 33.98, 30.3 17.05, 33.67 11.98 M4.96 45.83 C13.97 30.95, 28.48 18.31, 35.87 7.89 M2.87 51.48 C15.98 33.87, 30.55 18.35, 42.6 4.51 M5.06 52.51 C18.07 36.71, 32.25 19.26, 42.9 4.43 M-0.63 61.41 C21.56 39.16, 40.04 18, 55.01 -2.39 M3.12 58.48 C22.58 35.73, 41.28 14.72, 52.61 -2.49 M5.87 65.57 C22.5 42.5, 47.05 16.47, 58.14 1.56 M1.89 65.67 C19.77 42.99, 38.05 19.49, 60.07 -1.04 M2.41 68.04 C26.74 41.61, 48.06 20.48, 63.52 4.06 M4.46 68.01 C19.97 48.73, 37.51 28.47, 64.14 0.88 M0.78 75.84 C27.02 47.91, 49.82 20.13, 64.45 2.56 M4.17 74.21 C20.93 57.33, 35.54 40.19, 69.06 1.82 M2.49 81.51 C25.81 57.58, 43.78 37.22, 69.24 -0.97 M6.68 80.18 C24.52 54.66, 48.65 30.87, 73.82 3.43 M2.68 86.83 C27.98 61.69, 45.51 36.01, 75.72 4.68 M6.03 86.64 C22.98 66.93, 39.14 44.03, 78.76 1.01 M4.02 85.3 C26.72 67.21, 45.4 48.77, 83.19 0.7 M6.65 87.51 C27.48 65.66, 48.23 40.42, 81.75 2.22 M12 94.68 C27.93 68.19, 49.6 45.51, 81.68 8.53 M10.77 92.26 C37.64 60.05, 64.68 29.23, 87.44 7.13 M17.52 90.73 C33.54 71.53, 56.02 42.54, 92.5 5.35 M13.16 93.57 C35.85 71.25, 57.54 45.64, 88.03 5.63 M17.41 94.2 C42.21 67.46, 74.41 29.1, 95.53 9.09 M17.74 96.19 C38.24 75.05, 61.82 47.81, 90.62 8.32 M22.39 103.06 C51.58 70.36, 78.97 32.83, 97.08 14.16 M21.7 99.04 C49.47 66.48, 80.82 30.49, 97.28 12.09 M25.66 104.06 C54.43 68.18, 81.73 39.25, 97.87 11.7 M24.18 104.64 C50.71 69.49, 76.08 40.33, 101.06 14.3 M22.78 104.39 C54.25 70.67, 88.37 37.43, 100.27 18.63 M26.32 104.64 C49.32 77.23, 70.97 51.41, 101.41 15.6 M25.61 106.27 C59.48 73.59, 92.65 38.82, 106.15 19.08 M29.26 108.33 C58.25 77.31, 85.54 42.79, 106.16 19.34 M32.25 108.92 C54.85 79.43, 82.77 48.91, 102.93 23.46 M32.29 110.39 C57.86 79.26, 82.82 50.1, 105.66 24.47 M36.93 110.53 C60.13 83.21, 84.62 56.8, 107.97 26.37 M34.77 110.84 C63.2 85.1, 84.35 56.12, 109.31 29.31 M41.23 116.77 C54.17 89.14, 72.13 70.03, 111.34 29.42 M39.56 113.38 C61.3 88.71, 82.85 63.63, 108.47 32.32 M43.4 116.09 C61.18 94.13, 82.68 71.48, 113.62 38.74 M42.42 114.53 C69.54 86.28, 96.24 55.26, 110.38 35.34 M50.22 119.41 C66.23 94.98, 87.42 71.54, 110.56 44.42 M47.98 117.26 C65.67 93.64, 81.08 73.45, 114.9 41.08 M53.61 115.65 C62.72 102.75, 78.62 91.56, 117.59 48.07 M50.53 120.35 C67.57 99.88, 87.6 80.21, 115.25 46.4 M57.83 120.18 C74.87 92.58, 101.51 64.08, 117.14 47.26 M57.3 120.74 C73.43 99.17, 92.82 77.97, 117.32 48.75 M59.51 119.69 C83.92 93.74, 95.25 74.44, 113.81 56.57 M60.62 116.25 C82.16 92.88, 103.5 72.56, 115.08 57.01 M68.81 118.3 C81.02 101.84, 86.35 94.72, 119.73 62.34 M67.23 117.59 C87.66 93.56, 108.08 73.22, 115.98 60.14 M78.67 116.4 C82.35 107.32, 92.12 97.62, 117.69 63.11 M75.62 117.08 C89.41 99.11, 104.75 79.04, 116.28 65.53 M83.4 111.86 C91.9 104.6, 99.34 93.6, 116.46 74.69 M82.78 111.67 C94.59 100.64, 104.75 87.49, 116.45 73.88 M93.92 105.03 C104.02 94.42, 104.94 90.39, 112.83 85.2 M95.55 105.9 C100.04 100.3, 104.23 93.27, 111.32 88.15" stroke="#ffc9c9" stroke-width="0.5" fill="none"></path><path d="M53.98 -1.27 C62.78 -2.88, 74.71 0.04, 83.27 3.48 C91.83 6.92, 99.96 12.12, 105.35 19.36 C110.73 26.6, 113.52 37.64, 115.59 46.93 C117.67 56.21, 119.9 66.52, 117.8 75.08 C115.7 83.65, 109.38 91.82, 102.99 98.31 C96.61 104.8, 88.26 110.45, 79.49 114.02 C70.72 117.59, 59.23 121.11, 50.35 119.74 C41.47 118.37, 33.61 111.19, 26.21 105.8 C18.82 100.4, 10.1 95.03, 5.99 87.34 C1.87 79.66, 1.39 69.41, 1.55 59.7 C1.72 49.99, 2.52 37.19, 6.96 29.07 C11.4 20.95, 19.2 15.75, 28.21 10.97 C37.22 6.19, 54.4 1.97, 61.02 0.4 C67.64 -1.17, 68.24 0.64, 67.92 1.55 M85.45 4.4 C94.11 6.59, 99.83 13.77, 105.42 21.47 C111.02 29.16, 117.04 41.15, 119.01 50.59 C120.97 60.02, 120.29 69.48, 117.2 78.08 C114.1 86.68, 106.92 96.24, 100.44 102.17 C93.96 108.1, 86.62 110.95, 78.32 113.64 C70.03 116.34, 59.72 119.77, 50.66 118.33 C41.61 116.9, 31.79 110.63, 24.01 105.06 C16.23 99.48, 8.03 92.77, 3.99 84.9 C-0.06 77.02, -1.4 67.52, -0.25 57.8 C0.9 48.08, 6.35 34.43, 10.87 26.56 C15.4 18.69, 19.11 15.07, 26.9 10.58 C34.68 6.08, 47.77 0.72, 57.59 -0.4 C67.4 -1.52, 81.74 3.06, 85.79 3.88 C89.83 4.69, 82.38 3, 81.84 4.5" stroke="#e03131" stroke-width="1" fill="none"></path></g><g transform="translate(463.5353580278306 356.474429943318) rotate(0 36.58319854736328 9.961538461538481)"><text x="36.58319854736328" y="13.962092307692323" font-family="Virgil, Segoe UI Emoji" font-size="15.93846153846156px" fill="#e03131" text-anchor="middle" style="white-space: pre;" direction="ltr" dominant-baseline="alphabetic">index.html</text></g><g stroke-linecap="round" transform="translate(197.37810849305026 294.0895093461421) rotate(0 24.556099143563017 24.55609914356299)"><path d="M20.38 -0.6 C25.45 -1.63, 33.39 0.32, 37.95 3.42 C42.52 6.52, 46.31 12.9, 47.79 17.98 C49.28 23.07, 48.98 29.29, 46.87 33.93 C44.76 38.56, 39.53 43.21, 35.11 45.81 C30.69 48.41, 25.38 50.67, 20.34 49.54 C15.29 48.4, 8.1 43.17, 4.84 39.01 C1.59 34.85, 0.58 29.58, 0.82 24.58 C1.07 19.58, 2.49 13.16, 6.32 9.02 C10.16 4.89, 20.5 1.05, 23.82 -0.23 C27.15 -1.52, 26.3 0.83, 26.27 1.32 M30.02 1.38 C34.98 2.29, 39.78 6.16, 43.08 10.28 C46.38 14.4, 50.01 20.84, 49.83 26.08 C49.64 31.32, 45.37 37.99, 41.96 41.7 C38.55 45.41, 34.42 47.55, 29.39 48.35 C24.35 49.14, 16.3 49.35, 11.75 46.49 C7.2 43.64, 3.69 36.63, 2.09 31.21 C0.49 25.79, 0.49 18.61, 2.15 13.97 C3.81 9.33, 7.35 5.69, 12.03 3.35 C16.7 1.01, 27.28 0.2, 30.22 -0.07 C33.16 -0.33, 30.03 1.06, 29.66 1.75" stroke="#1e1e1e" stroke-width="1" fill="none"></path></g><g stroke-linecap="round"><g transform="translate(219.04525479619406 345.3684222635825) rotate(0 -0.6495657183229469 34.04064491586759)"><path d="M-1.62 -0.22 C-1.44 11.35, -1.44 56.07, -1.14 67.99 M2.7 -2.81 C2.6 9.25, -3.29 59.29, -4 70.89" stroke="#1e1e1e" stroke-width="1" fill="none"></path></g></g><mask></mask><g stroke-linecap="round"><g transform="translate(216.8785401658797 411.8143375932235) rotate(0 -14.11079074805474 16.088890511448163)"><path d="M-0.04 1.99 C-4.48 7.41, -22.07 26.77, -27.36 31.57 M-3.51 0.61 C-8.02 5.3, -24.45 23.24, -28.18 27.42" stroke="#1e1e1e" stroke-width="1" fill="none"></path></g></g><mask></mask><g stroke-linecap="round"><g transform="translate(216.8785401658797 411.8143375932235) rotate(0 13.538402259935253 13.758721861679604)"><path d="M-0.45 0.12 C4.85 4.66, 25.87 22.05, 31.22 27.39 M-4.15 -2.29 C0.99 2.53, 24.01 24.76, 29.86 29.81" stroke="#1e1e1e" stroke-width="1" fill="none"></path></g></g><mask></mask><g stroke-linecap="round"><g transform="translate(215.43406374567007 360.53542467578313) rotate(0 -9.597523741642988 8.591573641817106)"><path d="M-2.8 0.48 C-6.13 4.05, -15.58 15.66, -17.79 18.91 M0.88 -1.73 C-3.04 1.23, -17.11 11.66, -20.07 14.56" stroke="#1e1e1e" stroke-width="1" fill="none"></path></g></g><mask></mask><g stroke-linecap="round"><g transform="translate(221.93420763661334 359.8131864656783) rotate(0 7.181209529206001 12.064797034895847)"><path d="M0.98 0.65 C3.26 4.45, 12.24 19.44, 14.33 23.16 M0.03 -0.06 C2.14 3.84, 11.51 20.23, 13.59 24.19" stroke="#1e1e1e" stroke-width="1" fill="none"></path></g></g><mask></mask><g stroke-linecap="round"><g transform="translate(242.8791157296523 365.5910921465167) rotate(0 94.10481018265239 0.48770723478638445)"><path d="M1.17 1.66 C33.04 1.49, 158.32 -0.4, 189.85 -1.04 M-1.64 0.1 C29.91 0.31, 155.5 2.09, 187.17 2.02" stroke="#e03131" stroke-width="1" fill="none"></path></g><g transform="translate(242.8791157296523 365.5910921465167) rotate(0 94.10481018265239 0.48770723478638445)"><path d="M164.81 9.82 C168.75 7.99, 173.79 6.63, 188.91 1.92 M163.09 10.46 C170.02 8.46, 176.43 5.52, 186.2 2.49" stroke="#e03131" stroke-width="1" fill="none"></path></g><g transform="translate(242.8791157296523 365.5910921465167) rotate(0 94.10481018265239 0.48770723478638445)"><path d="M164.93 -7.28 C168.85 -4.84, 173.86 -1.93, 188.91 1.92 M163.21 -6.64 C169.94 -4.3, 176.32 -2.9, 186.2 2.49" stroke="#e03131" stroke-width="1" fill="none"></path></g></g><mask></mask><g stroke-linecap="round"><g transform="translate(211.45368078409717 326.12070869400225) rotate(0 11.301357041029576 2.7153243485064564)"><path d="M0.27 0.95 C1.69 1.55, 5 3.62, 8.89 4.02 C12.79 4.42, 21.3 3.66, 23.65 3.34 M-1.04 0.4 C0.72 1.09, 7.11 4.86, 11.14 5.03 C15.16 5.2, 21.12 1.77, 23.12 1.43" stroke="#1e1e1e" stroke-width="1" fill="none"></path></g></g><mask></mask><g stroke-linecap="round" transform="translate(216.76395941206636 308.79243106589206) rotate(0 1.7468021802530416 1.7468021802530416)"><path d="M1.27 -0.33 C1.71 -0.59, 2.54 -0.54, 2.97 -0.25 C3.4 0.04, 3.78 0.96, 3.87 1.39 C3.95 1.82, 3.73 2.07, 3.5 2.33 C3.26 2.59, 2.87 2.79, 2.47 2.96 C2.07 3.12, 1.42 3.37, 1.08 3.32 C0.75 3.28, 0.72 2.97, 0.47 2.7 C0.23 2.42, -0.37 2.11, -0.38 1.66 C-0.39 1.21, 0.18 0.31, 0.43 0.02 C0.67 -0.27, 0.98 -0.01, 1.1 -0.08 C1.22 -0.15, 1.05 -0.47, 1.14 -0.42 M0.63 0.66 C1.16 0.26, 2.85 -0.63, 3.36 -0.71 C3.86 -0.78, 3.54 -0.26, 3.66 0.2 C3.78 0.65, 4.09 1.48, 4.07 2.02 C4.06 2.57, 4.15 3.23, 3.55 3.48 C2.95 3.73, 1.14 3.52, 0.48 3.52 C-0.18 3.53, -0.45 3.9, -0.39 3.51 C-0.34 3.12, 0.75 1.69, 0.82 1.17 C0.89 0.66, -0.19 0.78, 0.01 0.43 C0.22 0.08, 1.92 -0.9, 2.03 -0.91 C2.14 -0.93, 0.68 0.11, 0.65 0.36" stroke="#1e1e1e" stroke-width="1" fill="none"></path></g><g stroke-linecap="round" transform="translate(228.29285380173667 309.5610240252034) rotate(0 1.7468021802530416 1.7468021802530416)"><path d="M1.34 0.42 C1.89 0.35, 3.2 -0.07, 3.52 0.1 C3.83 0.27, 3.22 1.1, 3.23 1.44 C3.24 1.77, 3.85 1.74, 3.59 2.1 C3.34 2.47, 2.08 3.38, 1.7 3.62 C1.31 3.87, 1.58 3.78, 1.26 3.57 C0.95 3.35, 0.06 2.63, -0.19 2.33 C-0.45 2.02, -0.44 1.98, -0.26 1.73 C-0.08 1.49, 0.63 1.19, 0.9 0.83 C1.18 0.47, 1.18 -0.19, 1.4 -0.42 C1.62 -0.66, 2.19 -0.65, 2.22 -0.57 M1.23 0.53 C1.55 0.6, 1.35 1, 1.76 1.18 C2.17 1.37, 3.54 1.37, 3.68 1.64 C3.83 1.91, 2.98 2.62, 2.64 2.82 C2.31 3.02, 1.93 2.59, 1.67 2.83 C1.41 3.07, 1.32 4.16, 1.09 4.27 C0.85 4.38, 0.56 3.92, 0.25 3.48 C-0.05 3.04, -0.81 2.27, -0.75 1.64 C-0.69 1.01, 0.3 0.11, 0.62 -0.31 C0.94 -0.73, 1.12 -1.02, 1.17 -0.87 C1.23 -0.72, 0.94 0.29, 0.96 0.6" stroke="#1e1e1e" stroke-width="1" fill="none"></path></g><g transform="translate(509.577809330166 450.68686024167187) rotate(0 61.07197570800781 20)"><text x="0" y="14.016" font-family="Virgil, Segoe UI Emoji" font-size="16px" fill="#f08c00" text-anchor="start" style="white-space: pre;" direction="ltr" dominant-baseline="alphabetic">sus eventos</text><text x="0" y="34.016" font-family="Virgil, Segoe UI Emoji" font-size="16px" fill="#f08c00" text-anchor="start" style="white-space: pre;" direction="ltr" dominant-baseline="alphabetic">se gestionan en</text></g><g stroke-linecap="round"><g transform="translate(494.2980414020044 432.0916207291633) rotate(0 0.7430329320204692 59.618762273425936)"><path d="M-0.94 1.95 C-1.19 21.3, 0.19 98.98, 0.31 118.7 M3.74 0.54 C2.9 20.18, -1.2 94.74, -2.26 113.96" stroke="#f08c00" stroke-width="1" fill="none"></path></g><g transform="translate(494.2980414020044 432.0916207291633) rotate(0 0.7430329320204692 59.618762273425936)"><path d="M9.24 24.91 C4.78 15.99, 2.71 6.33, -1.53 0.45 M8.46 25.43 C5.36 20.11, 3.15 14.47, -0.08 1.6" stroke="#f08c00" stroke-width="1" fill="none"></path></g><g transform="translate(494.2980414020044 432.0916207291633) rotate(0 0.7430329320204692 59.618762273425936)"><path d="M-7.86 25.09 C-6.09 16.16, -1.93 6.43, -1.53 0.45 M-8.64 25.6 C-7.58 20.18, -5.65 14.5, -0.08 1.6" stroke="#f08c00" stroke-width="1" fill="none"></path></g><g transform="translate(494.2980414020044 432.0916207291633) rotate(0 0.7430329320204692 59.618762273425936)"><path d="M-8.12 89.59 C-6.28 97.97, -2.52 105.55, -2.84 112.45 M-8.9 90.11 C-7.81 96.23, -6.13 102.09, -1.4 113.61" stroke="#f08c00" stroke-width="1" fill="none"></path></g><g transform="translate(494.2980414020044 432.0916207291633) rotate(0 0.7430329320204692 59.618762273425936)"><path d="M8.96 90.53 C4.56 98.5, 2.11 105.74, -2.84 112.45 M8.18 91.04 C5.12 97, 2.65 102.64, -1.4 113.61" stroke="#f08c00" stroke-width="1" fill="none"></path></g></g><mask></mask><g stroke-linecap="round" transform="translate(435.0712617885472 552.9831458555651) rotate(0 59.22353322859317 59.22353322859318)"><path d="M17.62 16.64 C17.62 16.64, 17.62 16.64, 17.62 16.64 M17.62 16.64 C17.62 16.64, 17.62 16.64, 17.62 16.64 M-0.76 39.11 C9.07 31.03, 16.35 22.05, 28.53 9.31 M1.35 40.85 C8.18 34.87, 16.98 24.96, 27.56 11.39 M2.91 40.78 C13.97 37.51, 23.73 23.73, 38.88 -2.12 M3.07 44.04 C14.89 30.42, 25.75 21.53, 39.93 -0.42 M1.6 52.63 C14.47 37.4, 24.73 26, 46.16 -0.07 M3.41 50.07 C16.55 37.01, 26.14 26.38, 46.47 2.07 M5.87 58.07 C23.61 35.31, 39.03 10.95, 54.49 5.99 M3.81 56.96 C20.6 37.91, 32.81 20.98, 48.97 3.4 M1.51 64.91 C19.86 49.86, 32.98 32.31, 52.77 2.57 M3.04 67.73 C21.81 41.06, 46.03 12.94, 56.97 1.8 M-1.23 74.03 C19.03 49.99, 33.5 30.22, 63.17 5.55 M4.27 71.24 C22.72 44.56, 46.19 18.5, 62.13 2.78 M-0.63 79.29 C25.02 50.37, 46.12 30.67, 64.63 4.7 M3.94 74.15 C18.06 58.81, 31.42 45.52, 67.49 3.66 M6.37 83.38 C19.99 56.92, 40.82 37.67, 72.21 0.64 M3.57 80.97 C23.62 63.12, 39.69 42.82, 72.89 2.8 M4.37 82.63 C34.25 52.91, 61.98 22.41, 73.98 0.43 M7.76 82.95 C21.56 68.6, 36.14 53.81, 77.55 3.2 M6.81 87 C35.58 57.58, 61.4 23.83, 82.21 8.97 M9.41 90.22 C30.84 62.99, 52.94 37.43, 81.26 4.05 M5.52 95.36 C27.4 73.24, 36.48 55.32, 82.28 5.03 M9.14 95.15 C29.26 67.51, 51.75 42.15, 83.1 8.92 M11.34 97.9 C34.53 65.44, 57.76 40.5, 90.1 8.05 M9.78 98.97 C41.39 60.81, 75.49 29.07, 88.76 8.66 M11.64 99.5 C36.84 78.25, 54.56 51.39, 93.46 12.34 M15.75 99.18 C30.13 78.06, 49.58 55.3, 89.76 11.73 M21.06 104.92 C44.96 69.08, 76.13 35.66, 93.49 13.84 M17.7 102.88 C38.83 79.1, 59.74 56.11, 94.77 15.06 M24.86 106.77 C49.61 72.81, 81.26 36.09, 94.05 16.37 M21.73 102.95 C44.61 75.58, 67.34 45.23, 96.9 14.49 M27.05 105.82 C38.46 88.48, 57.38 69.48, 100.49 21.38 M23.37 106.35 C51.86 75.64, 77.41 45.56, 102.34 18.57 M27.13 106.47 C39.19 90.43, 59.31 75.4, 99.77 19.73 M26.25 109.8 C46.18 85.38, 67.56 60.98, 104.32 20.5 M26.85 113.49 C49.71 91.49, 64.06 73.94, 105.8 21.88 M30.65 112.66 C59.37 77.63, 88.27 44.46, 106.36 24.47 M30.29 112.29 C47.17 97.93, 68.94 72.24, 104.9 28.67 M35.54 113.25 C60.76 81.14, 88.76 49.61, 109.55 28.51 M40.56 115.9 C61.09 90.7, 85.53 60.81, 111.91 35.61 M37.11 116.04 C53.44 97.91, 69.2 80.01, 110.62 32.94 M42.66 114.76 C72.17 89.32, 92.78 58.93, 111.56 39.05 M41.51 117.49 C68.45 88.47, 91.75 60.87, 113.11 34.68 M50.13 113.42 C65.64 94.17, 75.27 77.52, 115.92 39.01 M45.39 118.93 C69.04 89.69, 95.42 64.93, 114.74 38.15 M50.53 117.33 C65.21 101.1, 86.11 76.41, 112.46 46.88 M51.22 117.43 C72.98 94.37, 93.58 68.71, 113.34 43.14 M55.46 118.82 C69.9 103.92, 77.85 90.72, 114.8 46.67 M55.25 119.94 C70.13 103.19, 83.03 88.84, 115.43 50.18 M58.68 118.56 C81.16 96.98, 100.58 76.38, 116.15 53.77 M59.42 120.89 C81.34 96.02, 103.08 72.97, 115.58 55.42 M66.86 115.41 C82.26 99.29, 90.22 87.97, 116.03 60.23 M68.05 120.1 C83.53 98.15, 105.24 73.71, 117.04 60.03 M77.69 116.34 C86.28 98.65, 105.56 85.11, 117.71 64.96 M75.82 116.86 C90.2 96.69, 108.82 75.88, 118.93 64.52 M84.61 111.47 C94.76 101.66, 104.06 89.08, 115.68 75.29 M82.33 113.14 C87.3 104.39, 96.65 95.08, 117.72 74.44 M89.52 113.03 C95.9 104.93, 107.29 90.57, 110.88 85.87 M86.73 112.59 C96.87 105.74, 101.31 95.41, 116.29 83.4" stroke="#ffec99" stroke-width="0.5" fill="none"></path><path d="M98.9 16.02 C105.54 21.25, 109.65 30.08, 112.71 38.02 C115.78 45.96, 117.8 54.55, 117.29 63.66 C116.78 72.77, 114.82 84.74, 109.65 92.68 C104.48 100.61, 94.8 106.77, 86.28 111.28 C77.75 115.78, 67.66 119.69, 58.49 119.71 C49.32 119.73, 39.4 115.44, 31.24 111.39 C23.07 107.33, 14.59 102.91, 9.51 95.38 C4.44 87.86, 2.08 75.29, 0.8 66.24 C-0.49 57.19, -1.04 49.4, 1.79 41.1 C4.61 32.81, 10.96 23.19, 17.75 16.49 C24.53 9.79, 33.6 3.7, 42.5 0.91 C51.4 -1.87, 60.22 -4.24, 71.16 -0.22 C82.1 3.8, 100.89 18.29, 108.13 25.05 C115.38 31.82, 115.6 39.68, 114.61 40.39 M60.74 2.61 C68.96 1.89, 76.44 5.12, 84.66 8.51 C92.88 11.89, 104.11 16, 110.07 22.92 C116.02 29.84, 119.23 40.95, 120.4 50.02 C121.57 59.1, 120.61 68.87, 117.1 77.39 C113.59 85.91, 106.68 94.83, 99.33 101.15 C91.99 107.47, 81.71 112.37, 73.03 115.31 C64.35 118.25, 56.42 120.68, 47.26 118.78 C38.11 116.88, 24.92 110.32, 18.1 103.92 C11.28 97.52, 9.46 89.33, 6.33 80.38 C3.21 71.44, -0.83 59.54, -0.66 50.25 C-0.49 40.96, 2.16 31.35, 7.36 24.65 C12.56 17.96, 22.33 14.05, 30.53 10.08 C38.72 6.12, 52.41 2.06, 56.53 0.84 C60.65 -0.38, 54.61 2.35, 55.27 2.74" stroke="#f08c00" stroke-width="1" fill="none"></path></g><g transform="translate(466.468282979926 602.3677786708548) rotate(0 27.94915008544922 9.961538461538474)"><text x="27.94915008544922" y="13.962092307692323" font-family="Virgil, Segoe UI Emoji" font-size="15.93846153846156px" fill="#f08c00" text-anchor="middle" style="white-space: pre;" direction="ltr" dominant-baseline="alphabetic">index.js</text></g><g transform="translate(246.4527551404483 547.6135092352836) rotate(0 85.47196197509766 50)"><text x="0" y="14.016" font-family="Virgil, Segoe UI Emoji" font-size="16px" fill="#f08c00" text-anchor="start" style="white-space: pre;" direction="ltr" dominant-baseline="alphabetic">tiene las acciones</text><text x="0" y="34.016" font-family="Virgil, Segoe UI Emoji" font-size="16px" fill="#f08c00" text-anchor="start" style="white-space: pre;" direction="ltr" dominant-baseline="alphabetic">de botones</text><text x="0" y="54.016" font-family="Virgil, Segoe UI Emoji" font-size="16px" fill="#f08c00" text-anchor="start" style="white-space: pre;" direction="ltr" dominant-baseline="alphabetic">y renderizados.</text><text x="0" y="74.016" font-family="Virgil, Segoe UI Emoji" font-size="16px" fill="#f08c00" text-anchor="start" style="white-space: pre;" direction="ltr" dominant-baseline="alphabetic">Totalmente orientado</text><text x="0" y="94.016" font-family="Virgil, Segoe UI Emoji" font-size="16px" fill="#f08c00" text-anchor="start" style="white-space: pre;" direction="ltr" dominant-baseline="alphabetic">al front</text></g><g stroke-linecap="round"><g transform="translate(564.2330368881205 607.4163955550538) rotate(0 114.78343578690351 1.4817281958271096)"><path d="M-1.89 -1.27 C36.28 -0.45, 193.03 2.73, 231.46 3.28 M2.28 4.22 C39.86 4.43, 190.62 0.75, 229.23 -0.45" stroke="#2f9e44" stroke-width="1" fill="none"></path></g><g transform="translate(564.2330368881205 607.4163955550538) rotate(0 114.78343578690351 1.4817281958271096)"><path d="M20.87 -9.32 C14.26 -8.36, 4.19 -2.56, -0.74 -1.43 M22.15 -9.83 C14 -6.46, 7.25 -5.02, -2.54 -0.45" stroke="#2f9e44" stroke-width="1" fill="none"></path></g><g transform="translate(564.2330368881205 607.4163955550538) rotate(0 114.78343578690351 1.4817281958271096)"><path d="M20.52 7.78 C14.15 2.13, 4.21 1.3, -0.74 -1.43 M21.81 7.27 C13.86 5.13, 7.23 1.06, -2.54 -0.45" stroke="#2f9e44" stroke-width="1" fill="none"></path></g><g transform="translate(564.2330368881205 607.4163955550538) rotate(0 114.78343578690351 1.4817281958271096)"><path d="M205.07 8.75 C216.72 3.35, 224.8 2.47, 230.39 -0.62 M206.36 8.24 C213.42 6.24, 221.78 2.12, 228.58 0.36" stroke="#2f9e44" stroke-width="1" fill="none"></path></g><g transform="translate(564.2330368881205 607.4163955550538) rotate(0 114.78343578690351 1.4817281958271096)"><path d="M204.62 -8.35 C216.35 -7.12, 224.6 -1.39, 230.39 -0.62 M205.9 -8.85 C213.01 -5.35, 221.53 -3.96, 228.58 0.36" stroke="#2f9e44" stroke-width="1" fill="none"></path></g></g><mask></mask><g stroke-linecap="round" transform="translate(803.0980979428446 554.8933197456394) rotate(0 59.22353322859317 59.223533228593176)"><path d="M8.87 30.23 C8.87 30.23, 8.87 30.23, 8.87 30.23 M8.87 30.23 C8.87 30.23, 8.87 30.23, 8.87 30.23 M4.53 42.77 C19.28 24.44, 24.15 15.42, 34.32 6.94 M6.03 41.33 C15.81 31.08, 23.04 17.76, 33.62 7.26 M-1.39 49.12 C19.73 35.08, 37.51 17.43, 39.84 4.87 M1.38 51.04 C8.15 43.03, 17.68 31.83, 41.21 4.09 M-0.84 55.93 C7.97 41.14, 23.47 28.46, 47.23 3.67 M1.06 59.45 C13.72 46.11, 25.8 32.77, 51.72 1.3 M-1.37 61.2 C17.03 39.68, 42.38 20.16, 54 2.04 M2 64.75 C10.99 49.14, 25.35 35.56, 55.84 1.3 M-1.32 64.57 C13.99 55.15, 27.69 38.19, 60.32 2.78 M3.31 66.5 C21.18 50.93, 33.86 32.68, 60.71 -0.54 M4.98 76.54 C23.65 49.3, 39.75 34.69, 64.4 -2.67 M2.94 75 C27.31 47.46, 49.55 21.31, 67.25 0.79 M7.91 77.49 C19.36 64.11, 35 46.91, 70.64 2.03 M4.22 78.41 C24.17 53.52, 45.9 30.17, 72.12 0.29 M7.33 85.19 C27.69 62.38, 44.81 35.85, 77.04 2.6 M6.57 82.38 C31.92 48.32, 60.88 18.83, 77.01 3.59 M6.05 85.55 C38.58 51.43, 58.94 26.12, 80.53 0.37 M8.78 84.96 C33.99 51.89, 64.02 21.85, 79.91 1.31 M7.16 86.84 C29.55 68.92, 46.54 47.27, 82.52 3.59 M8.27 90.91 C33.42 64.86, 57.46 37.77, 82.46 4.44 M14.19 91.99 C37.9 61.39, 61.09 33.91, 89.53 5.86 M11.08 92.13 C28.67 73.6, 43.67 58.8, 88.49 6.98 M12.49 96.79 C35.24 74.57, 52.68 53.72, 89.34 6.43 M15.15 94.03 C39.55 69.3, 58.45 46.55, 90.03 10.27 M16.65 102.94 C48.51 66.16, 71.75 37.32, 93.05 12.17 M19.63 100.62 C47.3 65.35, 71.72 34.52, 95.26 13.18 M21.27 98.74 C49.63 65.83, 79.59 33.04, 98.5 14.09 M21.44 103.41 C43.42 73.96, 70.37 45.57, 97.81 16.68 M24.98 103.4 C39.04 92.91, 54.42 68.61, 101.02 20.59 M21.32 105.79 C53.05 74.99, 79.01 40.19, 101.37 17.25 M25.95 111.49 C49.2 89.71, 60.62 61.74, 104.19 18.7 M25.04 107.63 C51.5 75.38, 80.89 43.94, 104.32 20.22 M26.52 107.97 C44.07 92.47, 66.83 72.23, 106.59 23.32 M30.05 108.42 C48.38 92.29, 64.88 70.41, 104.38 21.19 M30.12 108.19 C53.69 83.96, 71.69 61.11, 103.22 24.01 M32.19 111.42 C50.93 92.25, 67.34 74.5, 105.86 28.88 M41.87 112.39 C55.03 90.39, 78.04 71.05, 108.85 28.92 M36.18 114.24 C53.55 92.78, 68.18 76.18, 108.95 29.23 M44.73 117.94 C66.58 90.05, 89.6 65.98, 114.22 33.63 M41.67 113.27 C59.43 94.69, 72.33 79.49, 111.72 34.34 M44.87 117.56 C69.07 83.33, 94.44 56.54, 110.02 40.31 M46.47 113.96 C69.14 89.93, 94.65 63.49, 112.07 37.76 M46.5 113.15 C80.02 87.37, 102.16 57.3, 111.68 45.3 M51.24 116.82 C76.07 89.62, 99.68 63.27, 114.29 42.19 M58.51 112.45 C81.63 88.54, 100.15 64.99, 120.18 42.55 M56.02 118.17 C74.63 96.05, 94.27 74.9, 115.8 47.09 M60.69 119.61 C84.54 95.14, 103.55 64.37, 119.38 53.91 M60.34 116.88 C85.26 91.18, 107.13 62.78, 118.36 51.02 M66.36 115.92 C79.16 102.91, 86.21 93.45, 120.08 56.84 M67.7 115.16 C81.85 98.85, 93.4 83.18, 118.02 55.53 M75.18 119.29 C78.5 102.38, 94.71 95.01, 118.9 62.2 M72.28 114.25 C85.12 100.01, 95.61 85.1, 117.79 63.05 M78.53 118.5 C89.26 98.16, 103.59 83.55, 120.22 71.72 M78.14 116.7 C92.25 100.02, 101.95 86.45, 115.56 70.5 M86.25 114.45 C97.16 103.27, 105.21 87.43, 108.44 78.81 M87.9 111.84 C95.27 100.41, 105.61 89.11, 114.18 82.23 M100.88 101.41 C101.65 100.65, 101.73 99.73, 102.61 98.74 M101.17 100.76 C101.39 100.45, 101.82 99.83, 103.11 98.97" stroke="#b2f2bb" stroke-width="0.5" fill="none"></path><path d="M104.38 21.64 C110.63 27.92, 115.04 38.11, 117.18 46.7 C119.33 55.29, 119.66 64.42, 117.24 73.2 C114.82 81.98, 108.77 92.44, 102.65 99.39 C96.53 106.34, 89.28 112.11, 80.52 114.91 C71.77 117.7, 59.29 117.09, 50.13 116.16 C40.97 115.22, 32.9 114.57, 25.55 109.28 C18.2 104, 10.54 93.1, 6.04 84.45 C1.55 75.8, -1.87 66.39, -1.42 57.39 C-0.98 48.39, 3.78 38.47, 8.7 30.43 C13.63 22.38, 20.42 14.36, 28.13 9.12 C35.84 3.88, 45.88 0.09, 54.96 -1.02 C64.04 -2.12, 72.81 -3.41, 82.6 2.48 C92.4 8.37, 107.91 26.15, 113.74 34.32 C119.58 42.5, 118.61 51.36, 117.62 51.55 M68.12 -1.89 C76.65 -2.02, 83.28 2.98, 90.5 8.43 C97.72 13.88, 107.09 22.43, 111.43 30.82 C115.77 39.2, 116.73 48.9, 116.53 58.74 C116.34 68.59, 114.78 81.44, 110.24 89.89 C105.71 98.34, 97.08 105.21, 89.3 109.44 C81.53 113.68, 71.76 114.7, 63.59 115.29 C55.43 115.88, 48.62 115.86, 40.31 112.99 C32.01 110.12, 19.98 104.63, 13.79 98.07 C7.59 91.51, 5.39 82.75, 3.15 73.62 C0.91 64.5, -1.56 51.95, 0.35 43.31 C2.27 34.67, 8.07 28.49, 14.64 21.79 C21.21 15.09, 30.56 6.54, 39.79 3.1 C49.01 -0.35, 65.66 1.07, 69.98 1.11 C74.29 1.15, 66.79 2.08, 65.68 3.34" stroke="#2f9e44" stroke-width="1" fill="none"></path></g><g transform="translate(831.8348102963328 604.277952560929) rotate(0 30.609458923339844 9.961538461538474)"><text x="30.609458923339844" y="13.962092307692323" font-family="Virgil, Segoe UI Emoji" font-size="15.93846153846156px" fill="#2f9e44" text-anchor="middle" style="white-space: pre;" direction="ltr" dominant-baseline="alphabetic">posts.js</text></g><g transform="translate(627.856105770552 573.0309977945789) rotate(0 59.575965881347656 10)"><text x="0" y="14.016" font-family="Virgil, Segoe UI Emoji" font-size="16px" fill="#2f9e44" text-anchor="start" style="white-space: pre;" direction="ltr" dominant-baseline="alphabetic">funciones fetch</text></g><g stroke-linecap="round" transform="translate(224.96027651667725 752.2860976896002) rotate(0 91.36998440854967 42.97891252666969)"><path d="M5.06 5.73 C5.06 5.73, 5.06 5.73, 5.06 5.73 M5.06 5.73 C5.06 5.73, 5.06 5.73, 5.06 5.73 M0.87 16.65 C8.32 14.79, 9.91 7.65, 13.99 1.56 M0.87 16.65 C5.55 11.52, 9.66 6.02, 13.99 1.56 M0.6 23.05 C8.69 18.77, 16.55 4.19, 20.29 0.41 M0.6 23.05 C6.96 15.14, 13.96 10.72, 20.29 0.41 M1 28.69 C9.88 24.11, 10.5 12.12, 25.93 0.02 M1 28.69 C12.61 18.48, 19.43 5.04, 25.93 0.02 M0.74 35.09 C9.11 27.88, 20.11 14.54, 30.92 0.38 M0.74 35.09 C6.51 26.64, 15.13 22.44, 30.92 0.38 M0.48 41.49 C9.54 30.5, 22.94 19.86, 36.56 -0.02 M0.48 41.49 C11.55 30.07, 23.79 13.33, 36.56 -0.02 M0.87 47.13 C8.8 37.5, 18.89 25.12, 41.55 0.34 M0.87 47.13 C15.14 28.19, 32.74 10.91, 41.55 0.34 M0.61 53.53 C14.72 42.38, 25.26 28.22, 47.19 -0.05 M0.61 53.53 C12.56 38.21, 21.29 27.12, 47.19 -0.05 M1 59.17 C11.11 40.98, 29.73 30.6, 52.18 0.31 M1 59.17 C16.96 42.37, 30.63 26.29, 52.18 0.31 M0.74 65.57 C12.09 46.9, 27.09 31.73, 57.82 -0.09 M0.74 65.57 C19.44 43.73, 38.22 23.57, 57.82 -0.09 M1.14 71.21 C20.21 57.2, 31.48 34.5, 62.81 0.27 M1.14 71.21 C20.11 49.79, 36.71 31.58, 62.81 0.27 M2.84 75.35 C17.26 60.56, 32.59 41.63, 68.45 -0.12 M2.84 75.35 C18.52 59.87, 33.22 43.24, 68.45 -0.12 M4.55 79.48 C25.29 52.19, 47.75 30.47, 73.44 0.24 M4.55 79.48 C23.48 55.21, 47.03 31.67, 73.44 0.24 M7.57 82.11 C26.87 63.36, 48.74 42.58, 78.42 0.6 M7.57 82.11 C31.11 56.46, 51.88 32.42, 78.42 0.6 M11.24 83.98 C36.09 56.75, 55.15 26.93, 84.07 0.2 M11.24 83.98 C33.99 55.54, 60.31 28.24, 84.07 0.2 M15.58 85.09 C43.19 59.57, 64.06 27.05, 89.05 0.56 M15.58 85.09 C30.89 65.96, 48.06 47.69, 89.05 0.56 M19.91 86.21 C37.9 63.6, 58.79 43.83, 94.7 0.17 M19.91 86.21 C39.04 62.66, 62.74 40, 94.7 0.17 M24.89 86.57 C55.04 56.12, 78.53 22.87, 99.68 0.53 M24.89 86.57 C54.66 53.52, 84.73 19.85, 99.68 0.53 M29.88 86.93 C54.53 63.75, 69.92 34.12, 105.33 0.13 M29.88 86.93 C50.99 62.79, 73.91 36.17, 105.33 0.13 M35.52 86.53 C56.4 62.25, 80.04 37.07, 110.31 0.49 M35.52 86.53 C51.02 68.66, 69.19 46.65, 110.31 0.49 M40.51 86.89 C58.72 62.91, 81.85 39.1, 115.96 0.1 M40.51 86.89 C67.95 58.48, 91.26 29.56, 115.96 0.1 M46.15 86.5 C66.72 61.28, 97.13 32.67, 120.94 0.46 M46.15 86.5 C77.01 55.61, 105.14 23.05, 120.94 0.46 M51.14 86.86 C71.27 61.42, 94.9 38.13, 126.59 0.06 M51.14 86.86 C76.78 52.59, 106.52 22.53, 126.59 0.06 M56.78 86.46 C80.53 68.56, 94.62 47.58, 131.57 0.42 M56.78 86.46 C77.59 61.9, 96.35 40.61, 131.57 0.42 M61.77 86.82 C88.45 60.83, 108.68 28.58, 137.22 0.03 M61.77 86.82 C84.66 57.85, 110.32 29.92, 137.22 0.03 M67.41 86.43 C101.28 52.68, 123.59 14.55, 142.2 0.39 M67.41 86.43 C93.15 60.24, 115.09 31.78, 142.2 0.39 M72.4 86.79 C88.18 62.49, 112.47 40.24, 147.85 0 M72.4 86.79 C90.04 65.01, 106.29 45.65, 147.85 0 M78.04 86.39 C100.75 60.7, 119.19 37.53, 152.83 0.36 M78.04 86.39 C106.17 52.22, 137.05 19.27, 152.83 0.36 M83.03 86.75 C97.96 65.17, 112.17 51.55, 158.48 -0.04 M83.03 86.75 C108.6 55.58, 136.18 22.07, 158.48 -0.04 M88.67 86.36 C113.33 63.68, 130.3 35.91, 162.81 1.08 M88.67 86.36 C116.12 59.93, 136.94 32.23, 162.81 1.08 M93.66 86.72 C112.9 72.89, 128.89 55.29, 167.14 2.19 M93.66 86.72 C119.58 58.34, 146.01 26.15, 167.14 2.19 M99.3 86.32 C117.03 61.67, 136.35 49.26, 172.13 2.55 M99.3 86.32 C124.64 56.08, 151.95 29.57, 172.13 2.55 M104.29 86.68 C118.65 68.53, 135.08 54.79, 175.8 4.42 M104.29 86.68 C131.87 59.72, 156.88 31.07, 175.8 4.42 M109.93 86.29 C140.52 52.77, 163.23 18.62, 178.82 7.04 M109.93 86.29 C131.68 59.74, 153.45 33.21, 178.82 7.04 M114.92 86.65 C136.68 63.3, 159.66 35.79, 180.53 11.18 M114.92 86.65 C136.12 59.33, 160.16 32.19, 180.53 11.18 M120.56 86.25 C134.43 63.38, 158.04 42.05, 182.23 15.31 M120.56 86.25 C138.7 63.17, 160.01 42.26, 182.23 15.31 M125.55 86.61 C137.45 74.33, 155.45 51.33, 182.63 20.96 M125.55 86.61 C143.24 69.33, 157.24 48.25, 182.63 20.96 M131.19 86.22 C148.44 69.8, 158.45 55, 182.37 27.35 M131.19 86.22 C146.91 66.71, 163.18 46.74, 182.37 27.35 M136.18 86.58 C154.51 64.76, 173.54 42.27, 182.76 33 M136.18 86.58 C155.04 65.01, 171.17 43.86, 182.76 33 M141.17 86.94 C155.42 72.07, 174.78 51.22, 182.5 39.39 M141.17 86.94 C152.61 73.21, 162.32 63.87, 182.5 39.39 M146.81 86.55 C155.25 76.87, 163.95 62.53, 182.89 45.04 M146.81 86.55 C161.52 71.44, 175.97 54.7, 182.89 45.04 M151.8 86.91 C157.55 78.53, 165.34 68.08, 182.63 51.43 M151.8 86.91 C163.52 72.53, 174.82 60.77, 182.63 51.43 M157.44 86.51 C160.99 80.25, 171.54 70.88, 183.03 57.08 M157.44 86.51 C165.3 76.72, 174.56 64.49, 183.03 57.08 M163.08 86.12 C166.21 74.76, 181.49 71.52, 182.77 63.48 M163.08 86.12 C169.83 78.86, 175.95 72.91, 182.77 63.48 M169.38 84.97 C172.22 79.73, 182.34 77.54, 181.85 70.63 M169.38 84.97 C172.51 79.9, 178.31 74.96, 181.85 70.63" stroke="#ffec99" stroke-width="0.5" fill="none"></path><path d="M21.49 0 C65.21 2.17, 109.46 -3.34, 161.25 0 M21.49 0 C62.41 2.77, 106.66 2.81, 161.25 0 M161.25 0 C174.25 2.81, 183.13 9.97, 182.74 21.49 M161.25 0 C173.99 -0.84, 180.01 4.05, 182.74 21.49 M182.74 21.49 C178.95 40.8, 182.03 55.97, 182.74 64.47 M182.74 21.49 C184.63 34.18, 181.52 46.96, 182.74 64.47 M182.74 64.47 C180.63 75.6, 173.03 87.03, 161.25 85.96 M182.74 64.47 C186.53 74.95, 174.15 83.57, 161.25 85.96 M161.25 85.96 C123.24 90.23, 83.86 88.01, 21.49 85.96 M161.25 85.96 C128.74 84.41, 96.38 85.84, 21.49 85.96 M21.49 85.96 C7.23 88.65, -3.15 82.02, 0 64.47 M21.49 85.96 C2.99 85.22, 3.23 79.94, 0 64.47 M0 64.47 C2.01 49.65, 0.57 34.88, 0 21.49 M0 64.47 C-2.55 48.03, -0.55 33.98, 0 21.49 M0 21.49 C3.27 5.54, 9.7 -1.34, 21.49 0 M0 21.49 C-1.22 8.31, 10.9 -3.34, 21.49 0" stroke="#f08c00" stroke-width="1" fill="none"></path></g><g transform="translate(264.5782849120434 765.26501021627) rotate(0 51.751976013183594 30)"><text x="51.751976013183594" y="14.016" font-family="Virgil, Segoe UI Emoji" font-size="16px" fill="#f08c00" text-anchor="middle" style="white-space: pre;" direction="ltr" dominant-baseline="alphabetic">funciones de </text><text x="51.751976013183594" y="34.016" font-family="Virgil, Segoe UI Emoji" font-size="16px" fill="#f08c00" text-anchor="middle" style="white-space: pre;" direction="ltr" dominant-baseline="alphabetic">componentes</text><text x="51.751976013183594" y="54.016" font-family="Virgil, Segoe UI Emoji" font-size="16px" fill="#f08c00" text-anchor="middle" style="white-space: pre;" direction="ltr" dominant-baseline="alphabetic">?</text></g><g stroke-linecap="round"><g transform="translate(391.14540495313327 753.5595469496498) rotate(0 42.13858737366968 -40.05050535815536)"><path d="M2.42 -1.35 C15.35 -14.17, 65.8 -65.98, 78.4 -79.44 M0.29 4.09 C14.07 -9.42, 70.07 -70.15, 83.98 -84.19" stroke="#f08c00" stroke-width="1" fill="none"></path></g><g transform="translate(391.14540495313327 753.5595469496498) rotate(0 42.13858737366968 -40.05050535815536)"><path d="M73.02 -62.36 C77.83 -70.3, 79.26 -78.31, 85.41 -82.48 M74.91 -61.47 C76.2 -68.01, 78.12 -73.17, 83.04 -85" stroke="#f08c00" stroke-width="1" fill="none"></path></g><g transform="translate(391.14540495313327 753.5595469496498) rotate(0 42.13858737366968 -40.05050535815536)"><path d="M60.63 -74.15 C69.43 -78.3, 74.96 -82.41, 85.41 -82.48 M62.52 -73.26 C66.96 -76.87, 72.03 -79.03, 83.04 -85" stroke="#f08c00" stroke-width="1" fill="none"></path></g></g><mask></mask><g transform="translate(190.50237375786628 852.6795411482855) rotate(0 162.31991577148438 20)"><text x="0" y="14.016" font-family="Virgil, Segoe UI Emoji" font-size="16px" fill="#f08c00" text-anchor="start" style="white-space: pre;" direction="ltr" dominant-baseline="alphabetic">Componentes dinamicos y reutilizables con</text><text x="0" y="34.016" font-family="Virgil, Segoe UI Emoji" font-size="16px" fill="#f08c00" text-anchor="start" style="white-space: pre;" direction="ltr" dominant-baseline="alphabetic">sus controladores</text></g><g transform="translate(578.5530077957378 632.3218535177148) rotate(0 117.58393096923828 30)"><text x="0" y="14.016" font-family="Virgil, Segoe UI Emoji" font-size="16px" fill="#2f9e44" text-anchor="start" style="white-space: pre;" direction="ltr" dominant-baseline="alphabetic">desde index.js</text><text x="0" y="34.016" font-family="Virgil, Segoe UI Emoji" font-size="16px" fill="#2f9e44" text-anchor="start" style="white-space: pre;" direction="ltr" dominant-baseline="alphabetic">se manejan las llamadas</text><text x="0" y="54.016" font-family="Virgil, Segoe UI Emoji" font-size="16px" fill="#2f9e44" text-anchor="start" style="white-space: pre;" direction="ltr" dominant-baseline="alphabetic">y se gestionan los resultados</text></g><g transform="translate(884.9638000772329 746.3513529908028) rotate(0 159.8959197998047 29.999999999999986)"><text x="0" y="14.016" font-family="Virgil, Segoe UI Emoji" font-size="16px" fill="#2f9e44" text-anchor="start" style="white-space: pre;" direction="ltr" dominant-baseline="alphabetic">desde posts.js en este caso,</text><text x="0" y="34.016" font-family="Virgil, Segoe UI Emoji" font-size="16px" fill="#2f9e44" text-anchor="start" style="white-space: pre;" direction="ltr" dominant-baseline="alphabetic">se gestionan las peticiones al back-end</text><text x="0" y="54.016" font-family="Virgil, Segoe UI Emoji" font-size="16px" fill="#2f9e44" text-anchor="start" style="white-space: pre;" direction="ltr" dominant-baseline="alphabetic">y no le importa desde donde es invocado</text></g><g transform="translate(187.11121341821695 1111.1373003837264) rotate(0 118.03395080566406 17.5)"><text x="0" y="24.528" font-family="Virgil, Segoe UI Emoji" font-size="28px" fill="#1971c2" text-anchor="start" style="white-space: pre;" direction="ltr" dominant-baseline="alphabetic">back-end (server)</text></g><g stroke-linecap="round" transform="translate(165.05076567463448 1168.744786397565) rotate(0 697.9154860620707 491.1102974674045)"><path d="M32 0 C344.44 -1.16, 658.5 -1.43, 1363.83 0 M1363.83 0 C1385.44 1.13, 1397.04 9.42, 1395.83 32 M1395.83 32 C1401.68 349.61, 1401.18 666.18, 1395.83 950.22 M1395.83 950.22 C1395.37 969.6, 1386.05 981.84, 1363.83 982.22 M1363.83 982.22 C954.4 985.56, 543.19 985.32, 32 982.22 M32 982.22 C8.18 978.88, 1.5 969.23, 0 950.22 M0 950.22 C-0.02 666.05, 1.8 380.2, 0 32 M0 32 C2.1 13.47, 14.33 -0.8, 32 0" stroke="#1971c2" stroke-width="1.5" fill="none" stroke-dasharray="8 9"></path></g><g stroke-linecap="round" transform="translate(547.510262217603 1296.5961762147704) rotate(0 59.22353322859317 59.22353322859317)"><path d="M14.52 20.58 C14.52 20.58, 14.52 20.58, 14.52 20.58 M14.52 20.58 C14.52 20.58, 14.52 20.58, 14.52 20.58 M7.95 37.8 C14.26 29.97, 20.17 14.03, 33.26 6.51 M9.09 35.58 C13.86 24.76, 22.08 17.22, 31.45 7.2 M0.99 43.79 C18.17 32.02, 26.57 14.16, 40.92 1.08 M3.8 47.59 C10.07 35.27, 22.98 23.96, 41.18 3.59 M2.23 55.77 C19.77 37.48, 28.83 20.34, 43.32 5.88 M3.44 53.61 C17.58 33.9, 33.55 15.76, 46.7 2.24 M4.41 61.11 C22.9 36.57, 34.21 19.7, 54.74 3.19 M4.07 57.72 C22.59 35.87, 36.32 19.31, 53.36 0.53 M4.02 65.56 C22.91 39.52, 38.94 26.26, 60.08 0.18 M4.56 61.98 C23.4 41.85, 42.94 22.08, 57.12 1.45 M6.81 68.49 C24.31 42.45, 43.88 24.07, 62.94 0.16 M5.96 69.82 C22.03 48.4, 40.46 30.67, 62.43 1.02 M6.5 72.16 C22.22 51.44, 41.04 27.66, 67.68 1.11 M4.15 75.4 C20.22 52.9, 35.4 33.88, 66.22 2.9 M4.21 82.18 C22.6 55.73, 42.07 36.73, 68.73 0.84 M7.09 80.25 C28.97 53.24, 51.97 26.17, 73.07 3.69 M9.9 86.34 C23.18 66.73, 38.57 41.5, 74.83 2.31 M6.16 84.17 C24.92 63.75, 46.56 41.44, 77.28 6.4 M13.79 87.03 C39.15 58.56, 60.52 24.13, 76.35 9.62 M9.44 85.8 C31.76 62.26, 51.41 37.03, 80.16 4.52 M12.41 87.3 C29.03 66.37, 48.34 46.86, 87.44 6 M13.66 88.81 C32.01 68.97, 53.09 43.11, 85.94 8.17 M12.04 91.31 C37.48 68.26, 63.94 34.65, 92.7 11.06 M13.49 94.47 C40.38 62.4, 67.09 30.61, 90.43 9.47 M17.42 95.35 C35.9 73.55, 59.25 56.38, 89.34 10.8 M16.15 96.8 C36.46 77.75, 52.53 55.7, 92.96 8.65 M22.57 101.62 C40.56 80.81, 53.18 58.35, 99.21 13.36 M18.05 100.44 C45.35 71.44, 73.25 41.28, 94.35 13.94 M24.82 107.67 C37.76 84.47, 54.79 65.63, 98.91 18.98 M20.77 102.27 C40.86 81.05, 61.2 56.63, 96.84 15.71 M25.57 101.95 C44.2 81.8, 68.7 55.04, 103.83 19.82 M25.65 107.05 C45.55 83.06, 64.24 60.18, 102.06 18.28 M32.4 105.81 C52.54 75.48, 76 46.7, 102.99 21.64 M29.78 109.54 C46.7 87.35, 66.77 62.44, 103.71 21.88 M33.77 106.19 C52.98 84.01, 81.92 61.52, 107.02 23.11 M30.59 111.37 C55.64 86.31, 73.34 61.41, 105.44 25.97 M36.5 110.96 C64.99 77.82, 92.74 53.68, 106.34 30.27 M33.17 112.41 C50.56 97.4, 65.72 76.28, 108.84 27.9 M41.12 112.84 C69.37 81.34, 92.61 54.38, 107.84 31.54 M39.56 114.89 C54.03 93.24, 71.63 75.54, 112.11 29.99 M43.32 116.18 C69.79 82.89, 97.91 59.94, 114.31 38.25 M43.98 118.31 C67.86 84.44, 95.04 51.93, 115.25 36.2 M50.05 117.23 C62.6 92.85, 83.91 78.91, 110.56 38.57 M46.9 115.76 C65.92 94.41, 83.16 74.46, 116.12 38.23 M52.24 119.13 C76.59 90.96, 99.94 63.69, 114.76 46.07 M53.6 117.12 C71.34 93.29, 92.8 71.73, 115.66 44.16 M60.26 116.38 C74.86 97.2, 93.85 78.56, 115.94 46.47 M59.45 117.61 C71.66 102.32, 82.37 83.59, 117.21 49.28 M65.93 120.88 C72.59 101.81, 84.6 88.65, 117.37 54.1 M61.9 115.96 C80.44 97.66, 97.59 76.17, 115.81 52.8 M69.33 115.16 C86.46 95.04, 109.75 69.78, 115.3 57.18 M69.08 119.75 C80.65 101.57, 93.87 88.46, 118.82 59.14 M76.82 113.85 C85.65 107.63, 88 96.87, 114.46 70.85 M75.73 115.05 C84.91 99.9, 100.47 88.93, 115.27 67.14 M86.58 111.52 C92.51 93.56, 107.07 85.97, 116.61 79.06 M86.61 110.35 C96.54 98.09, 108.15 86.44, 114.28 76.07" stroke="#ffec99" stroke-width="0.5" fill="none"></path><path d="M90.6 8.35 C98.68 12.64, 107.76 23.27, 112.41 31.39 C117.07 39.51, 118.63 48.11, 118.52 57.05 C118.4 66, 115.92 76.87, 111.72 85.08 C107.53 93.28, 100.84 100.76, 93.33 106.27 C85.82 111.78, 75.55 116.5, 66.67 118.14 C57.8 119.77, 48.3 119.08, 40.08 116.09 C31.86 113.1, 23.34 106.69, 17.35 100.19 C11.35 93.7, 6.59 86.23, 4.12 77.11 C1.66 68, 0.84 54.89, 2.56 45.48 C4.28 36.07, 8.7 27.67, 14.44 20.67 C20.18 13.67, 28.84 6.78, 37.02 3.49 C45.2 0.2, 53.75 -0.79, 63.53 0.92 C73.31 2.63, 89.86 11.26, 95.67 13.75 C101.48 16.25, 99.02 15.24, 98.38 15.89 M106.61 28.89 C112.35 34.76, 118.61 41.44, 119.63 50.02 C120.64 58.6, 115.92 71.22, 112.7 80.35 C109.48 89.49, 106.63 98.68, 100.33 104.83 C94.03 110.97, 84.12 115.5, 74.89 117.21 C65.65 118.93, 54.23 117.9, 44.92 115.12 C35.61 112.34, 26.25 106.45, 19.03 100.51 C11.81 94.57, 4.66 88, 1.58 79.48 C-1.49 70.96, -1.16 58.06, 0.57 49.38 C2.29 40.7, 6.26 34.49, 11.95 27.4 C17.65 20.32, 26.29 11.82, 34.73 6.88 C43.17 1.94, 53.67 -2.33, 62.6 -2.24 C71.53 -2.15, 80.7 2.35, 88.33 7.4 C95.96 12.46, 105.64 24.45, 108.35 28.08 C111.07 31.71, 105.38 28.81, 104.63 29.2" stroke="#f08c00" stroke-width="1" fill="none"></path></g><g transform="translate(578.9072834089818 1345.98080903006) rotate(0 27.94915008544922 9.961538461538453)"><text x="27.94915008544922" y="13.962092307692323" font-family="Virgil, Segoe UI Emoji" font-size="15.93846153846156px" fill="#f08c00" text-anchor="middle" style="white-space: pre;" direction="ltr" dominant-baseline="alphabetic">index.js</text></g><g transform="translate(518.8276871745022 1223.6797787635833) rotate(0 117.5919418334961 30)"><text x="0" y="14.016" font-family="Virgil, Segoe UI Emoji" font-size="16px" fill="#f08c00" text-anchor="start" style="white-space: pre;" direction="ltr" dominant-baseline="alphabetic">Donde se encuentra la</text><text x="0" y="34.016" font-family="Virgil, Segoe UI Emoji" font-size="16px" fill="#f08c00" text-anchor="start" style="white-space: pre;" direction="ltr" dominant-baseline="alphabetic">inicialización del server</text><text x="0" y="54.016" font-family="Virgil, Segoe UI Emoji" font-size="16px" fill="#f08c00" text-anchor="start" style="white-space: pre;" direction="ltr" dominant-baseline="alphabetic">y estructura de enrutamiento</text></g><g stroke-linecap="round" transform="translate(801.6539313526209 1326.0800123121685) rotate(0 89.40715018430751 31.839236936138263)"><path d="M15.92 0 C66.89 2.7, 117.45 -3.88, 162.89 0 M15.92 0 C50.61 -1, 82.61 -1.25, 162.89 0 M162.89 0 C172.24 2.24, 177.53 4.54, 178.81 15.92 M162.89 0 C175.38 3.13, 180.55 6.03, 178.81 15.92 M178.81 15.92 C182.05 25.32, 177.13 26.36, 178.81 47.76 M178.81 15.92 C179.86 27.23, 178.46 35.57, 178.81 47.76 M178.81 47.76 C181.48 55.56, 170.53 63.93, 162.89 63.68 M178.81 47.76 C179.35 60.05, 171.31 67.51, 162.89 63.68 M162.89 63.68 C108.97 66.12, 63.9 60.36, 15.92 63.68 M162.89 63.68 C132.15 61.01, 97.7 60.05, 15.92 63.68 M15.92 63.68 C6.25 66.7, -1.56 55.2, 0 47.76 M15.92 63.68 C9.77 60.94, 4.18 58.68, 0 47.76 M0 47.76 C2.71 39.12, 3.32 29.04, 0 15.92 M0 47.76 C1.53 39.7, -1.62 31.65, 0 15.92 M0 15.92 C2.75 2.88, 4.69 -3.82, 15.92 0 M0 15.92 C-4.32 4.23, 4.43 3.66, 15.92 0" stroke="#1e1e1e" stroke-width="1" fill="none"></path></g><g transform="translate(849.1171194397605 1337.9192492483066) rotate(0 41.94396209716797 20)"><text x="41.94396209716797" y="14.016" font-family="Virgil, Segoe UI Emoji" font-size="16px" fill="#1e1e1e" text-anchor="middle" style="white-space: pre;" direction="ltr" dominant-baseline="alphabetic">PETICION</text><text x="41.94396209716797" y="34.016" font-family="Virgil, Segoe UI Emoji" font-size="16px" fill="#1e1e1e" text-anchor="middle" style="white-space: pre;" direction="ltr" dominant-baseline="alphabetic">(REQ)</text></g><g stroke-linecap="round"><g transform="translate(873.144509153037 689.9896799058254) rotate(0 1.5792044188359569 312.60892068528705)"><path d="M0.76 2.36 C0.7 106.36, -0.55 520.79, 0.02 624.04 M-2.28 1.18 C-1.47 104.27, 4.44 515.52, 5.44 619.35" stroke="#2f9e44" stroke-width="1" fill="none"></path></g><g transform="translate(873.144509153037 689.9896799058254) rotate(0 1.5792044188359569 312.60892068528705)"><path d="M-1.71 594.66 C-0.21 604.96, 1.01 609.36, 7.43 620.62 M-2.49 596.01 C-1.24 602.04, 1 607.2, 6.25 618.46" stroke="#2f9e44" stroke-width="1" fill="none"></path></g><g transform="translate(873.144509153037 689.9896799058254) rotate(0 1.5792044188359569 312.60892068528705)"><path d="M15.39 594.45 C11.54 604.86, 7.4 609.33, 7.43 620.62 M14.61 595.81 C11.44 601.74, 9.26 606.96, 6.25 618.46" stroke="#2f9e44" stroke-width="1" fill="none"></path></g></g><mask></mask><g stroke-linecap="round"><g transform="translate(796.5165022253609 1354.818619900972) rotate(0 -57.058261557523565 -0.26085070633513396)"><path d="M-1.98 1.56 C-21.11 1.63, -96.04 -1.49, -115.15 -2.08 M2.14 -0.06 C-17.14 0.53, -96.22 0.4, -116.26 0.41" stroke="#1e1e1e" stroke-width="1" fill="none"></path></g><g transform="translate(796.5165022253609 1354.818619900972) rotate(0 -57.058261557523565 -0.26085070633513396)"><path d="M-91.65 -6.65 C-101.06 -5.41, -107.73 -5.28, -115.02 -1.55 M-93.1 -7.28 C-98.14 -6.04, -101.72 -3.74, -115.39 0.92" stroke="#1e1e1e" stroke-width="1" fill="none"></path></g><g transform="translate(796.5165022253609 1354.818619900972) rotate(0 -57.058261557523565 -0.26085070633513396)"><path d="M-91.65 10.45 C-100.91 6.79, -107.58 2.02, -115.02 -1.55 M-93.1 9.83 C-98.02 7.6, -101.61 6.45, -115.39 0.92" stroke="#1e1e1e" stroke-width="1" fill="none"></path></g></g><mask></mask><g stroke-linecap="round" transform="translate(509.48730634281264 1552.479751131445) rotate(0 99.09341286421318 35.2215313628767)"><path d="M17.61 0 C63.07 3.68, 112.39 -0.69, 180.58 0 M17.61 0 C60.44 1.42, 103.13 1.79, 180.58 0 M180.58 0 C193.2 -2.66, 201.62 8.28, 198.19 17.61 M180.58 0 C193.71 -4.56, 199.29 3.09, 198.19 17.61 M198.19 17.61 C199.07 28.44, 201.34 38.47, 198.19 52.83 M198.19 17.61 C196.94 24.85, 200.22 35.84, 198.19 52.83 M198.19 52.83 C200.26 63.64, 189.67 71.24, 180.58 70.44 M198.19 52.83 C195.81 60.22, 188.68 65.87, 180.58 70.44 M180.58 70.44 C133.47 68.58, 84.21 67.16, 17.61 70.44 M180.58 70.44 C145.97 69.13, 108.06 69.17, 17.61 70.44 M17.61 70.44 C8.15 67.62, -3.31 66.31, 0 52.83 M17.61 70.44 C9.21 68.78, 2.85 63.91, 0 52.83 M0 52.83 C3.4 42.54, -3.09 34.98, 0 17.61 M0 52.83 C-2.2 45.5, 1.46 35.39, 0 17.61 M0 17.61 C-1.15 9.55, 9.16 1.36, 17.61 0 M0 17.61 C-0.92 8.84, 4.65 -2.36, 17.61 0" stroke="#f08c00" stroke-width="1" fill="none"></path></g><g transform="translate(514.4873063428126 1577.7012824943217) rotate(0 50.84797668457031 10)"><text x="0" y="14.016" font-family="Virgil, Segoe UI Emoji" font-size="16px" fill="#f08c00" text-anchor="start" style="white-space: pre;" direction="ltr" dominant-baseline="alphabetic">Enrutamiento</text></g><g stroke-linecap="round"><g transform="translate(604.5912804920906 1423.7014082793578) rotate(0 -0.5193147443645785 59.798290812378696)"><path d="M1.06 -1.72 C0.65 17.93, 0.62 98.26, -0.46 118.08 M-1.8 3.51 C-2.56 23.57, -1.68 102.01, -1.38 121.32" stroke="#f08c00" stroke-width="1" fill="none"></path></g><g transform="translate(604.5912804920906 1423.7014082793578) rotate(0 -0.5193147443645785 59.798290812378696)"><path d="M-11.45 99.67 C-7.42 104.79, -4.78 116.53, -0.89 122.62 M-9.76 98.25 C-7.2 103.33, -6.43 110.09, -1.68 121.71" stroke="#f08c00" stroke-width="1" fill="none"></path></g><g transform="translate(604.5912804920906 1423.7014082793578) rotate(0 -0.5193147443645785 59.798290812378696)"><path d="M5.65 99.46 C3.3 104.73, -0.43 116.54, -0.89 122.62 M7.34 98.05 C5.48 103.21, 1.82 110.03, -1.68 121.71" stroke="#f08c00" stroke-width="1" fill="none"></path></g></g><mask></mask><g stroke-linecap="round" transform="translate(628.780871845999 1576.364130978366) rotate(0 30.911689684767225 11.008119707884703)"><path d="M1.47 1.27 C1.47 1.27, 1.47 1.27, 1.47 1.27 M1.47 1.27 C1.47 1.27, 1.47 1.27, 1.47 1.27 M0.55 8.43 C4.41 6.99, 7.42 3.83, 7.11 0.88 M0.55 8.43 C1.82 6.13, 3.69 4.2, 7.11 0.88 M0.29 14.82 C1.09 12.19, 11.83 4.38, 12.75 0.48 M0.29 14.82 C4.38 12.98, 6.4 6.37, 12.75 0.48 M1.34 19.71 C3.12 17.38, 6.54 11.5, 17.74 0.84 M1.34 19.71 C7.39 14.5, 10.6 11.28, 17.74 0.84 M5.01 21.58 C8.28 18.05, 12.04 9.02, 23.38 0.45 M5.01 21.58 C10.72 14.67, 18.51 6.07, 23.38 0.45 M10 21.94 C17.62 18.44, 13.86 9.92, 28.37 0.81 M10 21.94 C17.47 15.43, 25.68 7.51, 28.37 0.81 M14.99 22.3 C22.82 14.56, 20.55 12.57, 34.01 0.42 M14.99 22.3 C22.9 14.18, 29.24 3.79, 34.01 0.42 M20.63 21.91 C26.96 17.37, 32.67 6.78, 39 0.78 M20.63 21.91 C29.28 12.8, 35.79 7.36, 39 0.78 M25.62 22.27 C31.11 16.44, 34.34 11.82, 43.99 1.14 M25.62 22.27 C30.04 17.59, 35.78 12.86, 43.99 1.14 M31.26 21.87 C34.65 15.74, 42.15 14.33, 49.63 0.74 M31.26 21.87 C35.23 16.42, 40.16 13.4, 49.63 0.74 M36.25 22.23 C44.13 15.29, 46.31 10.18, 54.62 1.1 M36.25 22.23 C39.06 17.79, 45.46 12.29, 54.62 1.1 M41.89 21.84 C44.8 13.35, 53.74 8.42, 59.6 1.46 M41.89 21.84 C44.88 16.83, 52.66 10.26, 59.6 1.46 M46.88 22.2 C48.77 18.66, 54.69 12.1, 61.97 4.84 M46.88 22.2 C51.98 17.33, 56.6 12.45, 61.97 4.84 M51.86 22.56 C52.4 18.32, 61.27 14.62, 61.7 11.24 M51.86 22.56 C55.7 18.89, 60.23 13.7, 61.7 11.24 M56.85 22.92 C59.29 21.39, 58.32 18.76, 62.1 16.88 M56.85 22.92 C57.59 20.72, 59.04 19.61, 62.1 16.88" stroke="#1e1e1e" stroke-width="0.5" fill="none"></path><path d="M5.5 0 C21.72 1.41, 34.35 -0.97, 56.32 0 M5.5 0 C19.07 -1.82, 33.17 1.14, 56.32 0 M56.32 0 C56.64 0.34, 64.27 4.1, 61.82 5.5 M56.32 0 C57.52 -0.12, 62.01 2.75, 61.82 5.5 M61.82 5.5 C59.97 8.75, 62.12 12.82, 61.82 16.51 M61.82 5.5 C60.93 9.81, 62.3 12.98, 61.82 16.51 M61.82 16.51 C63.94 17.4, 59.48 23.14, 56.32 22.02 M61.82 16.51 C59.61 18.58, 61.06 18.63, 56.32 22.02 M56.32 22.02 C42.28 25.1, 27.33 25.91, 5.5 22.02 M56.32 22.02 C40.25 21.18, 22.13 21.45, 5.5 22.02 M5.5 22.02 C4.72 25.92, 3.43 23.72, 0 16.51 M5.5 22.02 C1.48 23.79, -1.4 18.94, 0 16.51 M0 16.51 C1.39 13.67, 0.4 9.16, 0 5.5 M0 16.51 C-0.49 12.84, -0.92 10.6, 0 5.5 M0 5.5 C-1.27 0.08, -0.16 -0.02, 5.5 0 M0 5.5 C3.66 0.81, 6.06 -0.08, 5.5 0" stroke="#1e1e1e" stroke-width="1" fill="none"></path></g><g stroke-linecap="round"><g transform="translate(660.7901444715451 1584.5816658261604) rotate(0 41.3863872467133 -41.17610532493927)"><path d="M1.43 1.16 C14.77 -12.33, 65.44 -65.29, 78.92 -79.5 M-1.24 -0.68 C13.05 -15.09, 70.29 -69.88, 84.01 -83.51" stroke="#1e1e1e" stroke-width="1" fill="none"></path></g><g transform="translate(660.7901444715451 1584.5816658261604) rotate(0 41.3863872467133 -41.17610532493927)"><path d="M73.96 -62.73 C77.18 -66.22, 76.73 -72.24, 82.53 -84.94 M72.93 -61.26 C74.64 -66.66, 78.76 -71.45, 83.03 -83.5" stroke="#1e1e1e" stroke-width="1" fill="none"></path></g><g transform="translate(660.7901444715451 1584.5816658261604) rotate(0 41.3863872467133 -41.17610532493927)"><path d="M62.04 -74.99 C68.43 -75.33, 71.1 -78.16, 82.53 -84.94 M61 -73.52 C65.1 -76.35, 71.73 -78.57, 83.03 -83.5" stroke="#1e1e1e" stroke-width="1" fill="none"></path></g></g><mask></mask><g transform="translate(755.4480591694007 1462.1179886858092) rotate(0 141.46392822265625 30)"><text x="0" y="14.016" font-family="Virgil, Segoe UI Emoji" font-size="16px" fill="#1e1e1e" text-anchor="start" style="white-space: pre;" direction="ltr" dominant-baseline="alphabetic">La petición ya tiene</text><text x="0" y="34.016" font-family="Virgil, Segoe UI Emoji" font-size="16px" fill="#1e1e1e" text-anchor="start" style="white-space: pre;" direction="ltr" dominant-baseline="alphabetic">la url a la cual apuntar</text><text x="0" y="54.016" font-family="Virgil, Segoe UI Emoji" font-size="16px" fill="#1e1e1e" text-anchor="start" style="white-space: pre;" direction="ltr" dominant-baseline="alphabetic">y el back maneja este enrutamiento</text></g><g stroke-linecap="round"><g transform="translate(602.8320633660035 1628.9417958087558) rotate(0 1.3321936979197062 58.99669893315206)"><path d="M-0.81 1.87 C-1.26 21.3, 0.38 95.89, -0.4 115.45 M3.95 0.42 C3.14 20.18, -0.62 98.59, -1.29 117.57" stroke="#f08c00" stroke-width="1" fill="none"></path></g><g transform="translate(602.8320633660035 1628.9417958087558) rotate(0 1.3321936979197062 58.99669893315206)"><path d="M-7.49 95.51 C-8.02 101.04, -2.41 111.19, -3.03 116.25 M-9.65 93.42 C-5.38 101.68, -4.23 108.38, -0.79 117.06" stroke="#f08c00" stroke-width="1" fill="none"></path></g><g transform="translate(602.8320633660035 1628.9417958087558) rotate(0 1.3321936979197062 58.99669893315206)"><path d="M9.59 96.23 C2.51 101.44, 1.57 111.31, -3.03 116.25 M7.43 94.15 C6.18 102.02, 1.81 108.48, -0.79 117.06" stroke="#f08c00" stroke-width="1" fill="none"></path></g></g><mask></mask><g stroke-linecap="round" transform="translate(548.2136262202353 1751.9493712825501) rotate(0 59.22353322859317 59.22353322859317)"><path d="M27.24 7.78 C27.24 7.78, 27.24 7.78, 27.24 7.78 M27.24 7.78 C27.24 7.78, 27.24 7.78, 27.24 7.78 M9.69 33.91 C17.83 24.71, 25.26 21.79, 33.77 5.75 M11.41 32.51 C21.43 19.84, 28.13 12.47, 32.48 7.02 M9.41 44.81 C17.46 28.03, 25.33 20.73, 37.14 5.3 M10.93 42.53 C14.98 35.56, 21.12 26.85, 39.78 4.19 M2.48 52.42 C14.6 47.94, 24.55 30.02, 48.22 0.25 M2.58 54.69 C19.53 34.99, 35.51 15.4, 49.38 2.99 M5.41 59.36 C20.8 41.9, 35.93 18.02, 53.7 1.23 M2.05 61.1 C12.89 47.3, 25.06 34.34, 52.92 0.59 M-0.74 70.38 C19.14 55.37, 29.62 39.38, 61.69 4.88 M1.54 66.35 C17.79 51.45, 32.72 34.36, 60.55 -0.62 M5.6 71.16 C17.18 53.3, 29.26 37.08, 60.22 -1.44 M1.91 72.11 C15.01 57.24, 30.59 42.72, 63.59 1.51 M2.69 78.15 C28.73 54.7, 51.2 29.44, 71.2 -1.12 M4.9 76.93 C23.5 54.14, 43.06 33.67, 68.6 1.35 M9.3 82.25 C36.68 49.76, 56.26 19.26, 69.05 1.44 M5.16 81.76 C27.77 60.29, 45.69 34.5, 72.14 5.08 M6.67 82.89 C34.96 62.61, 53.24 34.17, 74.54 2.33 M8.28 85.88 C24.15 68.42, 41.83 47.41, 78.72 6.09 M7.78 87.22 C29.64 60.44, 57.26 27.29, 82.06 3.13 M8.21 88.01 C34.29 60.84, 58.06 33.5, 84.23 3.81 M14.57 92.4 C33.91 74.06, 47.67 50.86, 82.94 7.94 M12.61 90.44 C35.95 67.85, 58.76 40, 87.34 6.63 M17.85 97.8 C40.42 66.2, 59.38 44.07, 93.27 7.08 M14.85 93.15 C39.3 66.1, 60.3 37.58, 89.5 9.52 M13.91 100.59 C37.33 82.13, 51.3 53.47, 92.52 10.35 M14.79 99.19 C41.43 71.28, 67.35 43.4, 93.63 13.09 M16.4 103.36 C39.27 88.57, 47.97 63.78, 93.46 13.57 M18.75 104.28 C34.49 81.9, 51.31 64.4, 94.17 16.07 M21.62 105.49 C54.47 71.85, 84.13 42.01, 96.75 15.76 M20.94 105.98 C39.66 85.88, 59.31 63.64, 99.87 18.35 M20.43 110.85 C48.86 81.91, 63.02 63.91, 100.18 21.98 M23.48 109.28 C49.42 80.73, 72.96 53, 103.04 17.64 M24.77 113.02 C57.2 80.99, 84.22 46.67, 107.93 22.01 M27.09 109.74 C57.73 77, 86.61 43.58, 105.02 22.11 M30.38 113.61 C50.29 92.83, 67.3 75.77, 106.49 26.64 M29.87 113.62 C55.28 87.45, 75.88 59.37, 108.21 24.49 M34.56 115.2 C56.76 90.66, 79.82 65.5, 110.52 33.1 M37.26 112.73 C62.81 79.65, 93.45 48.26, 110.02 29.44 M38.89 115.63 C60.02 93.47, 70.8 78.37, 109.54 35.43 M40.8 116.59 C65.94 83.8, 91.75 51.33, 109.7 33.68 M47.68 112.72 C63.75 96.91, 79.64 82.27, 114.4 37.11 M44.77 115.01 C65.8 90.35, 87.09 67.28, 110.99 36.64 M48.67 120.27 C70.37 92.77, 87.01 71.53, 116.6 40.14 M46.99 116.02 C69.64 92.32, 90.67 66.54, 113.48 43.31 M50.21 118.33 C73.57 95.75, 86.22 80.12, 119.55 42.01 M52.12 117.94 C74.58 96.97, 95.44 73.71, 116.03 47.13 M61.88 117.22 C79.52 96.13, 97.96 71.85, 120.43 49.19 M60.44 115.31 C75.93 98.1, 91.5 81.94, 118.77 49.33 M67.74 115.72 C81.47 95.78, 100.51 74.19, 122.8 53.15 M65.15 114.96 C82.31 97.03, 99.1 76.4, 119.84 52.86 M74.2 113.37 C86.16 92.92, 101.32 81.5, 121.91 57.13 M72.47 114.18 C83.96 99.34, 100.41 86.54, 120.78 59 M79.98 112.42 C87.1 104.95, 100.98 89.73, 120.49 63.3 M75.63 116.57 C93.85 98.04, 109.08 79.41, 118.49 64.42 M87.31 110.39 C93.68 97.88, 101.6 92.96, 116.74 73.62 M86.23 110.39 C99.93 96.77, 112.69 82.93, 121.32 71.88 M101.31 106.04 C108.12 92.46, 107.53 86.9, 118.95 79.53 M97.79 104.53 C106.67 93.78, 113.5 85.38, 119.83 81.85" stroke="#a5d8ff" stroke-width="0.5" fill="none"></path><path d="M26.91 8.15 C34.31 3.12, 47.86 0.42, 57.47 -0.14 C67.07 -0.69, 76.79 1.15, 84.56 4.82 C92.33 8.49, 98.43 14.32, 104.1 21.88 C109.78 29.45, 116.54 40.85, 118.61 50.23 C120.67 59.6, 119.12 69.79, 116.47 78.11 C113.82 86.42, 109.29 94.05, 102.72 100.12 C96.14 106.2, 86.29 111.83, 77 114.57 C67.72 117.31, 56.29 117.88, 46.99 116.58 C37.69 115.27, 28.09 112.32, 21.19 106.74 C14.29 101.16, 9.05 91.49, 5.59 83.09 C2.13 74.7, -0.21 65.44, 0.43 56.37 C1.07 47.31, 3 37.51, 9.43 28.69 C15.86 19.87, 32.82 8.13, 39 3.43 C45.18 -1.27, 46.49 -0.81, 46.5 0.5 M59.12 -1.76 C67.26 -2.86, 76.28 1.3, 83.88 5.62 C91.48 9.95, 99.2 17.08, 104.73 24.17 C110.26 31.26, 115.48 38.64, 117.07 48.19 C118.67 57.74, 117.12 72.86, 114.32 81.47 C111.51 90.09, 106.52 94.13, 100.26 99.89 C93.99 105.64, 85.34 113.06, 76.75 116.01 C68.16 118.96, 57.74 119.02, 48.74 117.59 C39.74 116.17, 30.01 113.27, 22.76 107.46 C15.52 101.66, 8.87 91.42, 5.26 82.76 C1.65 74.09, -0.11 65.19, 1.08 55.47 C2.27 45.75, 7.19 32.5, 12.38 24.43 C17.57 16.36, 24.81 11.28, 32.24 7.05 C39.66 2.81, 52.45 -0.1, 56.94 -0.96 C61.42 -1.82, 58.59 0.53, 59.17 1.9" stroke="#1971c2" stroke-width="1" fill="none"></path></g><g transform="translate(571.3678343012625 1791.2955425593782) rotate(0 36.19196319580078 20)"><text x="36.19196319580078" y="14.016" font-family="Virgil, Segoe UI Emoji" font-size="16px" fill="#1971c2" text-anchor="middle" style="white-space: pre;" direction="ltr" dominant-baseline="alphabetic">posts.rou</text><text x="36.19196319580078" y="34.016" font-family="Virgil, Segoe UI Emoji" font-size="16px" fill="#1971c2" text-anchor="middle" style="white-space: pre;" direction="ltr" dominant-baseline="alphabetic">tes.js</text></g><g transform="translate(351.47561050802005 1776.3878301930386) rotate(0 93.19994354248047 20)"><text x="0" y="14.016" font-family="Virgil, Segoe UI Emoji" font-size="16px" fill="#1971c2" text-anchor="start" style="white-space: pre;" direction="ltr" dominant-baseline="alphabetic">Distintos metodos y url</text><text x="0" y="34.016" font-family="Virgil, Segoe UI Emoji" font-size="16px" fill="#1971c2" text-anchor="start" style="white-space: pre;" direction="ltr" dominant-baseline="alphabetic">con funciones dentro</text></g><g stroke-linecap="round" transform="translate(793.3393734452857 1775.665096663257) rotate(0 99.09341286421318 35.2215313628767)"><path d="M17.61 0 C52.05 4.27, 91.23 1.42, 180.58 0 M17.61 0 C73.49 2.57, 125.61 2.86, 180.58 0 M180.58 0 C189.98 -0.17, 199.91 6.77, 198.19 17.61 M180.58 0 C192.95 1.45, 200.19 5.51, 198.19 17.61 M198.19 17.61 C196.53 27.15, 195.67 34.9, 198.19 52.83 M198.19 17.61 C199.81 27.71, 197.71 38.51, 198.19 52.83 M198.19 52.83 C196.21 67.86, 193.41 68.92, 180.58 70.44 M198.19 52.83 C197.21 60.4, 188.7 73.93, 180.58 70.44 M180.58 70.44 C147.74 71.54, 112.42 68.77, 17.61 70.44 M180.58 70.44 C139.87 68.44, 96.15 70.93, 17.61 70.44 M17.61 70.44 C8.19 70.44, 0.59 62.07, 0 52.83 M17.61 70.44 C9.03 66.48, -4.28 60.84, 0 52.83 M0 52.83 C-0.96 39.14, -2.82 22.89, 0 17.61 M0 52.83 C-0.05 45.48, -0.52 35.16, 0 17.61 M0 17.61 C-0.46 5.8, 2.97 1.42, 17.61 0 M0 17.61 C3.89 5.27, 4.1 -2.89, 17.61 0" stroke="#1971c2" stroke-width="1" fill="none"></path></g><g transform="translate(798.3393734452857 1790.8866280261336) rotate(0 48.73596954345703 20)"><text x="0" y="14.016" font-family="Virgil, Segoe UI Emoji" font-size="16px" fill="#1971c2" text-anchor="start" style="white-space: pre;" direction="ltr" dominant-baseline="alphabetic">determina</text><text x="0" y="34.016" font-family="Virgil, Segoe UI Emoji" font-size="16px" fill="#1971c2" text-anchor="start" style="white-space: pre;" direction="ltr" dominant-baseline="alphabetic">method y url</text></g><g stroke-linecap="round" transform="translate(911.9076323553938 1797.1792296183921) rotate(0 30.911689684767225 11.008119707884703)"><path d="M1.47 1.27 C1.47 1.27, 1.47 1.27, 1.47 1.27 M1.47 1.27 C1.47 1.27, 1.47 1.27, 1.47 1.27 M0.55 8.43 C2.8 5.61, 5.31 2.21, 7.11 0.88 M0.55 8.43 C3.45 6.42, 4.22 4.97, 7.11 0.88 M0.29 14.82 C5.76 7.29, 11.53 6.39, 12.75 0.48 M0.29 14.82 C5.15 7.62, 9.1 4.3, 12.75 0.48 M1.34 19.71 C4.96 15.36, 12.18 14.43, 17.74 0.84 M1.34 19.71 C6.16 14.28, 8.17 9.66, 17.74 0.84 M5.01 21.58 C11.93 11.72, 17.2 8.99, 23.38 0.45 M5.01 21.58 C11.2 17.19, 14.88 9.78, 23.38 0.45 M10 21.94 C16.13 13.18, 19.41 11.2, 28.37 0.81 M10 21.94 C15.09 13.28, 22.62 9.2, 28.37 0.81 M14.99 22.3 C25.14 12.26, 26.85 5.28, 34.01 0.42 M14.99 22.3 C23.06 13.83, 27.78 4.36, 34.01 0.42 M20.63 21.91 C23.34 11.53, 35.01 6.05, 39 0.78 M20.63 21.91 C25.02 16.91, 29.52 10.44, 39 0.78 M25.62 22.27 C33.36 20.06, 35.27 7.11, 43.99 1.14 M25.62 22.27 C29.74 18.04, 33.65 13.4, 43.99 1.14 M31.26 21.87 C37.21 14.15, 49.35 6.4, 49.63 0.74 M31.26 21.87 C35.92 17.44, 41.19 13.37, 49.63 0.74 M36.25 22.23 C36.52 17.73, 42.89 10.98, 54.62 1.1 M36.25 22.23 C41.24 15.35, 49.13 7.04, 54.62 1.1 M41.89 21.84 C46.29 19.2, 51.01 9.76, 59.6 1.46 M41.89 21.84 C46.15 15.49, 53.64 9.07, 59.6 1.46 M46.88 22.2 C54.68 19.75, 55.1 12.92, 61.97 4.84 M46.88 22.2 C50.62 16.76, 57.16 11.84, 61.97 4.84 M51.86 22.56 C52.65 19.16, 59.43 19.16, 61.7 11.24 M51.86 22.56 C56.32 19.97, 58.45 17.09, 61.7 11.24 M56.85 22.92 C59.66 19.73, 59.78 17.41, 62.1 16.88 M56.85 22.92 C58.55 21.4, 61.39 19.02, 62.1 16.88" stroke="#1e1e1e" stroke-width="0.5" fill="none"></path><path d="M5.5 0 C17.99 0.32, 35.85 -1.56, 56.32 0 M5.5 0 C25.78 -0.66, 44.47 2.63, 56.32 0 M56.32 0 C56.81 1.87, 59.16 -0.13, 61.82 5.5 M56.32 0 C60.21 0.89, 64 2.62, 61.82 5.5 M61.82 5.5 C63.14 7.53, 60.91 14.27, 61.82 16.51 M61.82 5.5 C62.81 7.78, 62.67 10.91, 61.82 16.51 M61.82 16.51 C65.24 22.92, 61.35 25.24, 56.32 22.02 M61.82 16.51 C63.56 22.83, 61.04 24.75, 56.32 22.02 M56.32 22.02 C46.16 18.58, 36.9 22.25, 5.5 22.02 M56.32 22.02 C47.3 23.07, 33.16 22.65, 5.5 22.02 M5.5 22.02 C4.11 23.09, -1.6 20.46, 0 16.51 M5.5 22.02 C6.14 25.5, 1.99 22.2, 0 16.51 M0 16.51 C0.42 13.5, 1.05 11.06, 0 5.5 M0 16.51 C0.41 11.76, -0.63 8.8, 0 5.5 M0 5.5 C-2.09 3.42, 2.16 3.87, 5.5 0 M0 5.5 C-2.94 -2.38, 2.72 4.26, 5.5 0" stroke="#1e1e1e" stroke-width="1" fill="none"></path></g><g stroke-linecap="round"><g transform="translate(675.5907307543275 1808.94283169852) rotate(0 53.041492360604025 -0.40824887944188504)"><path d="M-0.44 -2.72 C17.86 -3.09, 92.09 -1.82, 110.21 -1.32 M-4.12 1.97 C13.78 1.89, 88.35 1.33, 108.05 1.59" stroke="#1971c2" stroke-width="1" fill="none"></path></g><g transform="translate(675.5907307543275 1808.94283169852) rotate(0 53.041492360604025 -0.40824887944188504)"><path d="M82.6 10.21 C90.95 6.17, 99.46 5.44, 106.64 0.57 M84.37 10.93 C88.57 9.43, 95.14 6.66, 108.52 1.87" stroke="#1971c2" stroke-width="1" fill="none"></path></g><g transform="translate(675.5907307543275 1808.94283169852) rotate(0 53.041492360604025 -0.40824887944188504)"><path d="M82.63 -6.89 C91.02 -5.56, 99.53 -0.93, 106.64 0.57 M84.4 -6.17 C88.46 -4.2, 95.03 -3.48, 108.52 1.87" stroke="#1971c2" stroke-width="1" fill="none"></path></g></g><mask></mask><g stroke-linecap="round" transform="translate(1123.8315930988333 1748.9638160976829) rotate(0 59.22353322859317 59.22353322859317)"><path d="M7.73 26.6 C7.73 26.6, 7.73 26.6, 7.73 26.6 M7.73 26.6 C7.73 26.6, 7.73 26.6, 7.73 26.6 M10.12 30.73 C6.81 31.72, 17.45 21.38, 28.58 11.47 M5.38 36.44 C13.66 23.98, 20.53 19.43, 27.71 9.72 M2.86 40.8 C9.92 27.89, 21.12 23.07, 38.32 4.12 M3.87 42.29 C11.78 33.33, 22.89 18.68, 34.64 8.49 M3.83 51.61 C14.91 36.05, 25.06 22.68, 41.31 7.62 M2.66 52.25 C13.9 39.83, 20.52 28.84, 43.06 5.67 M1.25 57.26 C12.88 46.15, 21.99 29.64, 44.78 5.8 M3.12 57.67 C11.48 44.67, 26.48 31.07, 48.62 5.88 M5.23 65.86 C17.47 46.96, 36.45 30.02, 56.96 4.15 M1.99 64.74 C21.79 41.87, 38.65 22.52, 54.58 1.13 M1.52 68.52 C20.29 48.01, 31.28 37.33, 57.14 0.99 M5.3 69.35 C20.18 50.88, 32.74 35.09, 58.01 3.79 M3.57 72.06 C15.56 62.6, 25.69 48.31, 64.04 1.31 M4.46 71.7 C26.91 48.03, 50.64 20.14, 66.25 2.39 M2.32 80.57 C22.9 56.71, 35.57 45.21, 69.9 8.37 M6.27 79.65 C25.58 55.18, 43.08 34.58, 71.18 3.03 M2.87 87.37 C30.71 51.89, 50.46 26.03, 73.02 2.17 M5.68 82.67 C31.92 54.71, 57.11 26.53, 73.81 5.76 M6.34 88.5 C21.98 70.78, 37.08 54.38, 81.65 4.2 M7.75 87.14 C32.21 60.2, 55.43 34, 80.4 7.2 M11.87 85.8 C36.51 62.86, 55.89 39.25, 80.59 10.2 M9.82 89.27 C37.34 60.32, 61.36 27.35, 85.05 7.15 M17.78 96.55 C37.56 60.46, 66.64 32.42, 90.46 7.65 M14.77 94.73 C39.04 63.75, 66.31 31.37, 89.24 8 M18.86 96.79 C42.4 71.28, 64.24 42.53, 86.93 11.78 M16.44 95.71 C38.76 69.05, 63.55 41.41, 89.05 12.55 M16.29 103.32 C36.62 75.13, 55.03 48.84, 95.25 15.28 M17.65 98.89 C43.06 74.04, 65.74 50.32, 93.92 11.68 M18.88 104.39 C52.14 64.67, 77.15 37.17, 94.94 15.86 M19.61 101.98 C53.14 68.55, 81.74 35.75, 95.41 17.71 M20.32 102.53 C43.04 87.57, 53.27 65.4, 102.29 17.46 M23.27 106.41 C43.48 83.48, 63.52 61.11, 101.82 19.53 M26.39 106.98 C42.95 88.39, 64.99 65.53, 105 20.03 M28.67 107.63 C44.87 90.5, 61.85 71.16, 101.02 22.22 M33.69 112.01 C50.2 82.43, 77.35 61.57, 107.38 25.75 M29.75 107.35 C48.02 91.51, 63.64 74.28, 105.69 23.18 M38.7 114.61 C57.99 83.09, 88.08 56.26, 111.66 30.3 M35.6 113.04 C57.52 87.36, 79.04 61.62, 106.79 29.26 M35.15 113.77 C65.66 85.95, 91.21 47.99, 107.81 28.33 M39.91 111.13 C56.69 95.78, 69.61 77.43, 107.54 32.09 M39.9 112.46 C59.92 91.51, 79.98 73.47, 110.88 36.75 M42.99 114.89 C65.66 89.08, 89.52 60.86, 112.83 37.27 M46.17 120.4 C57.61 100.29, 74.36 77.06, 115.55 39.95 M45.13 116.99 C68.37 91.76, 89.09 63.4, 111.93 39.47 M50.15 115.29 C69.38 90.91, 94.29 69.07, 113.4 40.59 M49.32 116.68 C71.28 89.87, 94.16 66.82, 115.84 43.04 M56.95 113.34 C76.53 100.88, 91.23 84.74, 118.12 46.29 M55.32 116.16 C77.9 91.79, 97.83 68.44, 114.7 46.65 M59.13 114.52 C79.43 91.46, 106.21 67.28, 116.82 50.7 M62.36 115.7 C82.55 93.37, 104.47 70.02, 117.18 54.17 M65.27 117.48 C77.68 103.77, 91.73 90.11, 117.19 61.41 M65.78 118.51 C77.56 104.45, 85.83 94.03, 117.74 60.51 M71.97 120.44 C84.63 102.32, 91.09 93.5, 118.81 69.54 M73.19 117.35 C86.5 100.87, 102.58 83.76, 116.12 67.05 M78.32 117.79 C88.85 104.51, 100.15 85.33, 117.09 73.44 M79.04 117.2 C92.73 100.75, 108.45 79.83, 117.36 71.21 M86.51 111.68 C93.96 100.42, 103.32 94.75, 113.88 80.98 M89.39 112.54 C97.23 104.14, 102.1 93.9, 110.56 82.67 M99.5 103.68 C101.25 101.67, 103.42 100.37, 104.3 99.15 M100.54 103.01 C101.77 101.16, 103.06 100.54, 103.19 99.05" stroke="#eebefa" stroke-width="0.5" fill="none"></path><path d="M54.92 1.64 C64.18 0.53, 77.21 2.76, 85.79 6.5 C94.37 10.25, 101.31 17.22, 106.41 24.12 C111.5 31.02, 114.84 39.26, 116.36 47.9 C117.87 56.55, 117.77 67.23, 115.49 76 C113.2 84.77, 108.94 93.71, 102.64 100.52 C96.33 107.34, 86.97 114.15, 77.67 116.91 C68.36 119.66, 55.84 118.88, 46.8 117.06 C37.77 115.24, 30.45 111.88, 23.48 106 C16.5 100.12, 8.68 90.32, 4.97 81.79 C1.25 73.26, 0.7 64.04, 1.18 54.82 C1.66 45.6, 3.31 34.35, 7.85 26.46 C12.39 18.58, 14.81 10.49, 28.43 7.52 C42.04 4.55, 75.79 4.03, 89.53 8.63 C103.27 13.23, 111.5 34.38, 110.87 35.11 M14.65 18.64 C20.45 12.02, 34.84 5.28, 43.61 2.55 C52.38 -0.18, 59.06 1.07, 67.27 2.26 C75.48 3.46, 85.6 4.79, 92.88 9.72 C100.17 14.66, 106.36 22.74, 110.98 31.87 C115.6 41, 120.43 54.72, 120.58 64.49 C120.74 74.27, 116.93 83.16, 111.91 90.53 C106.9 97.91, 98.39 103.78, 90.49 108.75 C82.59 113.72, 73.32 119.28, 64.51 120.35 C55.69 121.43, 46.15 119.69, 37.6 115.21 C29.06 110.74, 19.66 101.28, 13.24 93.53 C6.82 85.78, 0.35 77.68, -0.92 68.72 C-2.2 59.75, 2.89 48.38, 5.58 39.74 C8.28 31.1, 12.99 19.99, 15.24 16.9 C17.5 13.8, 18.35 20.18, 19.11 21.17" stroke="#9c36b5" stroke-width="1" fill="none"></path></g><g transform="translate(1162.2737726764426 1798.309987374511) rotate(0 20.90399169921875 10)"><text x="20.90399169921875" y="14.016" font-family="Virgil, Segoe UI Emoji" font-size="16px" fill="#9c36b5" text-anchor="middle" style="white-space: pre;" direction="ltr" dominant-baseline="alphabetic">get /</text></g><g stroke-linecap="round"><g transform="translate(997.7489776738332 1813.994155605432) rotate(0 58.2495810429167 -0.950157678644814)"><path d="M2.4 -0.47 C21.63 0, 97.56 1.66, 116.24 1.4 M0.26 -3.19 C19.02 -3.43, 93.94 -3.37, 113.94 -2.85" stroke="#1971c2" stroke-width="1" fill="none"></path></g><g transform="translate(997.7489776738332 1813.994155605432) rotate(0 58.2495810429167 -0.950157678644814)"><path d="M90.01 5.34 C99.22 1.11, 104.58 1.62, 115.66 -4.63 M91.33 6.15 C97.41 2.2, 104.38 0.58, 114.87 -2.61" stroke="#1971c2" stroke-width="1" fill="none"></path></g><g transform="translate(997.7489776738332 1813.994155605432) rotate(0 58.2495810429167 -0.950157678644814)"><path d="M90.21 -11.76 C99.26 -10.31, 104.56 -4.12, 115.66 -4.63 M91.53 -10.95 C97.6 -9.7, 104.5 -6.12, 114.87 -2.61" stroke="#1971c2" stroke-width="1" fill="none"></path></g></g><mask></mask><g stroke-linecap="round" transform="translate(547.0467256229592 1994.7466606988926) rotate(0 59.22353322859317 59.22353322859317)"><path d="M20.36 16.37 C20.36 16.37, 20.36 16.37, 20.36 16.37 M20.36 16.37 C20.36 16.37, 20.36 16.37, 20.36 16.37 M1.55 40.51 C4.2 34.3, 11.8 25.99, 35.27 7.13 M2.69 45.31 C9.37 34.31, 17.82 23.76, 33.16 10.91 M1.4 47.27 C12.96 36.92, 27.31 18.67, 44.86 2.24 M3.71 51.3 C14.23 34.39, 28.4 16.67, 42.84 5.13 M0.1 56.99 C10.54 45.5, 26.37 25.48, 43.61 2.53 M1.9 56.26 C20.32 35.24, 38.18 13.13, 46.96 4.96 M1.45 62.85 C17.66 44.29, 30.72 31.73, 55.18 2.63 M1.62 61.4 C19.22 43.44, 34.32 25.27, 53.14 1.8 M1.98 68.18 C23.88 42.91, 41.36 20.94, 60.77 7.04 M1.65 65.03 C19.68 45.93, 37.78 29.34, 57.14 5.05 M1.7 71.68 C17.28 54.74, 25.09 42.47, 61.84 2.91 M3.82 71.98 C18.05 54.5, 33.23 34.33, 63.4 2.99 M8.2 75.18 C23.76 48.28, 45.2 23.71, 66.84 1.29 M7 77.42 C19.77 60.18, 33.57 46.04, 69.69 4.16 M3.43 81.42 C18.87 60.89, 36.69 44.28, 77.29 -0.9 M7.74 80.79 C28.09 55.73, 48.37 30.3, 75.06 3.45 M6.38 82.75 C25.74 61.63, 44.64 39.58, 75.23 3.63 M8.82 82.66 C35.53 54.62, 63.32 23.73, 77.12 2.77 M10.54 87.91 C38.01 53.6, 64.21 25.01, 83.88 7.57 M10.62 87.56 C27.51 66.22, 44.94 49.17, 82.65 6.13 M10.66 91.26 C30.09 68.35, 51.29 46.29, 87.16 9.97 M11.69 93.43 C39.99 62.2, 66.7 30.34, 84.93 8.78 M14.12 97.32 C40.25 70.15, 59.15 44.99, 89.73 8.04 M14.06 96.18 C43.61 62.83, 72.13 31.64, 89.67 9.1 M18.38 99.45 C40.38 76.4, 57.44 52.42, 95.74 14.36 M18.54 100.59 C35.44 73.96, 56.88 51.13, 91.67 13.99 M21.1 105.94 C47.88 66.37, 78.65 34.31, 95.58 10.14 M20.71 102.46 C42.92 78.01, 61.48 55.81, 95.4 12.18 M26.79 104.68 C44.31 74.1, 71.5 54.29, 99.97 19.24 M23.44 105.45 C36.99 84.91, 55.57 66.09, 99 16.43 M28.99 109.72 C44.93 80.46, 66.03 56.1, 104.05 19.88 M24.97 107.7 C47.97 83.46, 65.18 61.52, 100.2 19.35 M30.98 112.22 C47.01 87.57, 63.23 63.91, 106.08 25.92 M29.47 108.99 C50.06 85.1, 72.82 61.49, 104.97 22.82 M34.51 111.47 C52.14 83.99, 80.58 53.13, 108.92 25.6 M29.65 113.84 C48.74 91.57, 68.03 68.47, 106.79 24.8 M31.9 111.16 C55.81 96.48, 68.42 76.04, 107.44 30.06 M36.76 115.88 C52.47 94.81, 65.97 78.39, 107.99 28.03 M40.17 113.35 C65.28 85.08, 92.09 58.72, 114.56 35.32 M40.54 116 C54.53 98.44, 70.11 80.46, 111.64 34.12 M48.4 119 C61.05 98.85, 74.37 81.02, 110.69 36.49 M46.52 114.97 C62.87 94.7, 80.37 73.43, 112.9 37.91 M47.81 117.43 C69.86 96.35, 87.42 73.03, 113.19 43.14 M51.93 115.04 C62.85 100.03, 78.07 84.27, 114.28 42.87 M53.89 116.86 C69.86 101.21, 84.76 77.58, 113.68 48.89 M53.72 118.59 C68.25 104.77, 79.56 90.2, 116.94 46.98 M63.11 119.39 C75.61 101.45, 90.1 85.58, 116.89 53.31 M59.15 119.24 C73.96 101.94, 87.44 84.63, 117.3 52.54 M66.98 118.49 C76.28 98.71, 93.94 90.54, 118.07 56.55 M65.7 115.46 C77.46 102.95, 92.95 85.09, 118.37 57.17 M70.88 117.28 C83.14 101, 93.73 94.2, 117.66 64.19 M73.84 117.01 C89.49 96.08, 107.74 74.29, 118.34 62.56 M80.1 113.5 C93.15 98.7, 100.53 89.41, 121.45 67.42 M78.83 113.99 C95.71 95.02, 109.28 78.86, 120.56 66.9 M81.91 114.04 C96.69 100.7, 108.78 85.92, 115.39 72.82 M86.81 111.53 C98.69 101.58, 106.3 86.12, 118.2 74.8 M104.5 94.61 C108.76 90.89, 108.24 88.29, 113.11 88.11 M103.83 96.51 C106.61 93.73, 109.72 90.29, 112.21 87.42" stroke="#ffec99" stroke-width="0.5" fill="none"></path><path d="M97.95 14.29 C104.85 18.86, 108.73 27.48, 112.41 36.02 C116.08 44.55, 120.34 56.29, 120.01 65.49 C119.68 74.68, 115.99 83.4, 110.44 91.17 C104.9 98.94, 95.04 107.73, 86.76 112.11 C78.48 116.49, 69.92 117.2, 60.75 117.44 C51.58 117.69, 39.7 117.37, 31.76 113.58 C23.83 109.79, 17.99 102.2, 13.14 94.71 C8.29 87.21, 4.64 77.42, 2.64 68.62 C0.64 59.82, -1.74 50.56, 1.16 41.92 C4.06 33.27, 13.39 23.16, 20.04 16.74 C26.68 10.33, 32.2 5.99, 41.03 3.44 C49.86 0.88, 61.36 -2.84, 73.02 1.4 C84.67 5.63, 103.99 20.9, 110.98 28.85 C117.97 36.81, 115.63 48.71, 114.97 49.12 M58.57 -1.89 C66.75 -3.82, 74.35 -1.27, 81.79 2.67 C89.23 6.6, 97.43 13.57, 103.2 21.7 C108.97 29.84, 114.42 42.7, 116.41 51.46 C118.39 60.22, 117.36 65.88, 115.11 74.25 C112.86 82.62, 109.02 94.74, 102.9 101.68 C96.78 108.62, 87.28 113.05, 78.38 115.88 C69.49 118.72, 58.66 119.97, 49.54 118.67 C40.43 117.37, 31.42 113.8, 23.69 108.06 C15.96 102.31, 7.25 93.11, 3.16 84.2 C-0.93 75.28, -1.99 64.16, -0.86 54.56 C0.27 44.96, 4.81 34.67, 9.94 26.58 C15.06 18.48, 22.71 10.21, 29.91 5.99 C37.1 1.77, 48.81 2.21, 53.1 1.26 C57.39 0.3, 55.57 -0.01, 55.67 0.29" stroke="#f08c00" stroke-width="1" fill="none"></path></g><g transform="translate(572.3903563114084 2044.131293514182) rotate(0 34.002540588378906 9.961538461538453)"><text x="34.002540588378906" y="13.962092307692323" font-family="Virgil, Segoe UI Emoji" font-size="15.93846153846156px" fill="#f08c00" text-anchor="middle" style="white-space: pre;" direction="ltr" dominant-baseline="alphabetic">utils.js ?</text></g><g stroke-linecap="round"><g transform="translate(607.1465295872479 1992.0894284054318) rotate(0 1.1211748113497606 -56.8014622117754)"><path d="M-1.18 1.62 C-0.62 -16.84, 0.8 -91.77, 0.87 -110.52 M3.38 0.04 C3.87 -19.35, 0.17 -97.27, -0.89 -115.23" stroke="#f08c00" stroke-width="1" fill="none"></path></g><g transform="translate(607.1465295872479 1992.0894284054318) rotate(0 1.1211748113497606 -56.8014622117754)"><path d="M10 -91.57 C7.17 -97.64, 4.83 -103.08, -2.21 -114.85 M9.81 -92.81 C5.14 -100.7, 2.42 -108.61, -0.74 -116.01" stroke="#f08c00" stroke-width="1" fill="none"></path></g><g transform="translate(607.1465295872479 1992.0894284054318) rotate(0 1.1211748113497606 -56.8014622117754)"><path d="M-7.08 -90.71 C-6.3 -96.89, -5.04 -102.51, -2.21 -114.85 M-7.27 -91.94 C-6.12 -100.09, -3.04 -108.3, -0.74 -116.01" stroke="#f08c00" stroke-width="1" fill="none"></path></g></g><mask></mask><g transform="translate(347.6675671614404 2033.7273405776996) rotate(0 90.63195800781256 20)"><text x="0" y="14.016" font-family="Virgil, Segoe UI Emoji" font-size="16px" fill="#f08c00" text-anchor="start" style="white-space: pre;" direction="ltr" dominant-baseline="alphabetic">Archivos o conjunto de</text><text x="0" y="34.016" font-family="Virgil, Segoe UI Emoji" font-size="16px" fill="#f08c00" text-anchor="start" style="white-space: pre;" direction="ltr" dominant-baseline="alphabetic">funciones de uso común</text></g><g mask="url(#mask-bM0nvoFtReuhS6b0EGBYQ)" stroke-linecap="round"><g transform="translate(662.3339625786969 2017.1746252197267) rotate(0 233.0173574487843 -86.34773513584855)"><path d="M1.58 1.19 C79.73 -27.86, 389.08 -145.13, 467.04 -173.88 M-1.01 -0.64 C76.92 -29.47, 386.39 -143.72, 464.66 -171.66" stroke="#f08c00" stroke-width="1" fill="none"></path></g><g transform="translate(662.3339625786969 2017.1746252197267) rotate(0 233.0173574487843 -86.34773513584855)"><path d="M21.4 -15.28 C14.3 -9.73, 11.68 -7.53, 0.96 -0.8 M20.62 -14.74 C15.4 -10.48, 11.33 -6.6, 1.52 0.82" stroke="#f08c00" stroke-width="1" fill="none"></path></g><g transform="translate(662.3339625786969 2017.1746252197267) rotate(0 233.0173574487843 -86.34773513584855)"><path d="M27.43 0.72 C18.9 2.57, 14.87 1.04, 0.96 -0.8 M26.64 1.26 C20.12 1.73, 14.61 1.76, 1.52 0.82" stroke="#f08c00" stroke-width="1" fill="none"></path></g><g transform="translate(662.3339625786969 2017.1746252197267) rotate(0 233.0173574487843 -86.34773513584855)"><path d="M446.36 -155.78 C448.1 -157.99, 454.37 -163.33, 464.04 -173.65 M445.57 -155.24 C449.81 -159.08, 454.91 -162.98, 464.6 -172.03" stroke="#f08c00" stroke-width="1" fill="none"></path></g><g transform="translate(662.3339625786969 2017.1746252197267) rotate(0 233.0173574487843 -86.34773513584855)"><path d="M440.51 -171.85 C443.64 -170.34, 451.28 -171.94, 464.04 -173.65 M439.73 -171.31 C445.23 -171.34, 451.73 -171.37, 464.6 -172.03" stroke="#f08c00" stroke-width="1" fill="none"></path></g></g><mask id="mask-bM0nvoFtReuhS6b0EGBYQ"><rect x="0" y="0" fill="#fff" width="1229.6353432335638" height="2288.4706834659128"></rect><rect x="892.2566560799582" y="1921.526596096634" fill="#000" width="7.45599365234375" height="20" opacity="1"></rect></mask><g transform="translate(892.2566560799587 1921.526596096634) rotate(0 3.0946639475226903 9.300293987244231)"><text x="3.727996826171875" y="14.016" font-family="Virgil, Segoe UI Emoji" font-size="16px" fill="#f08c00" text-anchor="middle" style="white-space: pre;" direction="ltr" dominant-baseline="alphabetic">?</text></g><g stroke-linecap="round"><g transform="translate(1251.4777277601404 1809.325851615568) rotate(0 28.40570853459485 -1.4319240433287632)"><path d="M-0.05 -0.94 C10.41 -1.52, 50.76 -2.06, 60.33 -1.65 M-3.51 -3.92 C6.98 -4.33, 49.54 0.96, 59.32 1.08" stroke="#9c36b5" stroke-width="1" fill="none"></path></g><g transform="translate(1251.4777277601404 1809.325851615568) rotate(0 28.40570853459485 -1.4319240433287632)"><path d="M34.58 9.44 C39.2 5.88, 46.64 4.18, 59.92 0.82 M35.22 8.78 C40.73 6.74, 47.42 3.61, 60.32 0.98" stroke="#9c36b5" stroke-width="1" fill="none"></path></g><g transform="translate(1251.4777277601404 1809.325851615568) rotate(0 28.40570853459485 -1.4319240433287632)"><path d="M35.88 -7.61 C40.33 -7.5, 47.49 -5.54, 59.92 0.82 M36.52 -8.27 C41.78 -5.9, 48.13 -4.62, 60.32 0.98" stroke="#9c36b5" stroke-width="1" fill="none"></path></g></g><mask></mask><g stroke-linecap="round" transform="translate(1321.8991172783412 1778.9200544973894) rotate(0 89.4071501843074 31.839236936138263)"><path d="M15.92 0 C70.88 -1.52, 135.9 2.81, 162.89 0 M15.92 0 C59.65 -2.41, 106.25 -0.84, 162.89 0 M162.89 0 C172.44 0.32, 179.64 8.44, 178.81 15.92 M162.89 0 C176.7 -3.64, 180.41 2.5, 178.81 15.92 M178.81 15.92 C183.06 28.31, 178.98 44.13, 178.81 47.76 M178.81 15.92 C177.02 25.7, 178.53 32.44, 178.81 47.76 M178.81 47.76 C178.5 56.11, 174.56 65.37, 162.89 63.68 M178.81 47.76 C181.31 54.83, 171.39 62.12, 162.89 63.68 M162.89 63.68 C116.96 63.18, 61.63 65.07, 15.92 63.68 M162.89 63.68 C130.65 61.55, 100.68 61.79, 15.92 63.68 M15.92 63.68 C9.16 66.4, 2.64 54.43, 0 47.76 M15.92 63.68 C0.75 67.99, 4.57 60.52, 0 47.76 M0 47.76 C-2.76 36.83, -2.74 31.83, 0 15.92 M0 47.76 C-0.29 37.7, 2.06 25.81, 0 15.92 M0 15.92 C-1.03 4.25, 5.16 3.8, 15.92 0 M0 15.92 C2.47 5.37, 1.64 -1.91, 15.92 0" stroke="#1e1e1e" stroke-width="1" fill="none"></path></g><g transform="translate(1362.6902930363792 1790.7592914335278) rotate(0 48.61597442626953 20)"><text x="48.61597442626953" y="14.016" font-family="Virgil, Segoe UI Emoji" font-size="16px" fill="#1e1e1e" text-anchor="middle" style="white-space: pre;" direction="ltr" dominant-baseline="alphabetic">RESPUESTA</text><text x="48.61597442626953" y="34.016" font-family="Virgil, Segoe UI Emoji" font-size="16px" fill="#1e1e1e" text-anchor="middle" style="white-space: pre;" direction="ltr" dominant-baseline="alphabetic">(RES)</text></g><g stroke-linecap="round"><g transform="translate(1408.04398984133 1777.2534090056818) rotate(0 -237.74907771110566 -583.9582050192457)"><path d="M0.93 0.26 C-9.84 -170.48, 16.89 -828.19, -62.6 -1022.93 C-142.1 -1217.68, -406.89 -1144.52, -476.05 -1168.18 M-2.02 -2.06 C-13.16 -172.44, 15.3 -825.15, -63.77 -1019.16 C-142.83 -1213.16, -407.66 -1140.92, -476.42 -1166.08" stroke="#9c36b5" stroke-width="1" fill="none"></path></g><g transform="translate(1408.04398984133 1777.2534090056818) rotate(0 -237.74907771110566 -583.9582050192457)"><path d="M-452.28 -1171.82 C-461.13 -1168.62, -471.55 -1167.04, -475.41 -1166.44 M-452.01 -1172.68 C-460.74 -1171.55, -468.01 -1168.21, -477.35 -1165.37" stroke="#9c36b5" stroke-width="1" fill="none"></path></g><g transform="translate(1408.04398984133 1777.2534090056818) rotate(0 -237.74907771110566 -583.9582050192457)"><path d="M-453.29 -1154.75 C-461.85 -1157.89, -471.91 -1162.64, -475.41 -1166.44 M-453.02 -1155.61 C-461.48 -1159.96, -468.42 -1162.09, -477.35 -1165.37" stroke="#9c36b5" stroke-width="1" fill="none"></path></g></g><mask></mask><g stroke-linecap="round" transform="translate(1055.949311190301 1230.2560147409176) rotate(0 73.41656752632184 102.7831945368506)"><path d="M32 0 C52.13 -1.01, 78.21 -3.67, 114.83 0 M114.83 0 C139.64 -1.43, 144.73 12.17, 146.83 32 M146.83 32 C148.99 86.54, 148.99 147.3, 146.83 173.57 M146.83 173.57 C144.63 198.29, 134.63 204.08, 114.83 205.57 M114.83 205.57 C96.55 201.53, 74.75 204.37, 32 205.57 M32 205.57 C11.81 208.3, -2.17 192.11, 0 173.57 M0 173.57 C-3.51 132.99, -1.75 93.65, 0 32 M0 32 C-0.16 8.65, 11.09 -3.52, 32 0" stroke="#1e1e1e" stroke-width="1.5" fill="none" stroke-dasharray="8 9"></path></g><g transform="translate(1091.284406751312 1274.7135702876528) rotate(0 39.92797088623047 50)"><text x="0" y="14.016" font-family="Virgil, Segoe UI Emoji" font-size="16px" fill="#1e1e1e" text-anchor="start" style="white-space: pre;" direction="ltr" dominant-baseline="alphabetic">URL</text><text x="0" y="34.016" font-family="Virgil, Segoe UI Emoji" font-size="16px" fill="#1e1e1e" text-anchor="start" style="white-space: pre;" direction="ltr" dominant-baseline="alphabetic">METHOD</text><text x="0" y="54.016" font-family="Virgil, Segoe UI Emoji" font-size="16px" fill="#1e1e1e" text-anchor="start" style="white-space: pre;" direction="ltr" dominant-baseline="alphabetic">PARAMS ?</text><text x="0" y="74.016" font-family="Virgil, Segoe UI Emoji" font-size="16px" fill="#1e1e1e" text-anchor="start" style="white-space: pre;" direction="ltr" dominant-baseline="alphabetic">BODY ?</text><text x="0" y="94.016" font-family="Virgil, Segoe UI Emoji" font-size="16px" fill="#1e1e1e" text-anchor="start" style="white-space: pre;" direction="ltr" dominant-baseline="alphabetic">OTROS...</text></g><g stroke-linecap="round" transform="translate(10 10.000000000000057) rotate(0 72.80614109150457 71.35966146717007)"><path d="M48.53 3.54 C57.42 -0.97, 69.51 -1.14, 80.14 0.36 C90.77 1.86, 103.44 6.68, 112.29 12.51 C121.14 18.34, 127.83 27.02, 133.23 35.33 C138.64 43.64, 143.13 52.19, 144.74 62.35 C146.34 72.51, 146.61 86.62, 142.88 96.3 C139.15 105.99, 130.14 113.52, 122.35 120.45 C114.56 127.38, 106.07 134.16, 96.13 137.89 C86.19 141.62, 73.26 143.92, 62.73 142.81 C52.21 141.69, 41.33 137.13, 32.98 131.18 C24.62 125.24, 17.94 115.57, 12.6 107.11 C7.26 98.66, 2.06 90.29, 0.94 80.47 C-0.17 70.65, 2.16 58.4, 5.91 48.18 C9.67 37.96, 14 27.17, 23.47 19.14 C32.93 11.11, 54.06 3.05, 62.7 -0.01 C71.33 -3.06, 75.16 -0.69, 75.25 0.83" stroke="transparent" stroke-width="1.5" fill="none" stroke-dasharray="8 9"></path></g><g transform="translate(1714.1722094741533 2173.0055583011776) rotate(0 92.83396054829018 43.01059144126043)"><text x="0" y="60.28364496407057" font-family="Virgil, Segoe UI Emoji" font-size="68.81694630601663px" fill="transparent" text-anchor="start" style="white-space: pre;" direction="ltr" dominant-baseline="alphabetic">posts</text></g></svg>